<svg width="126" height="277" viewBox="0 0 126 277" fill="none" xmlns="http://www.w3.org/2000/svg">
<path d="M50.1991 194.749C53.2999 195.007 55.8218 195.348 58.3541 195.431C74.5918 195.979 90.633 194.015 106.643 191.565C110.152 190.887 113.736 190.679 117.3 190.945C120.132 191.286 122.798 193.012 125.206 193.994C125.382 195.607 125.506 196.299 125.517 196.992C125.651 203.958 122.416 208.578 116.411 212.206C103.729 219.844 92.9793 230.025 81.9302 239.813C76.6073 244.526 70.5608 248.444 65.2171 253.147C61.8787 256.082 59.2223 259.813 56.287 263.214C55.5221 264.113 55.0156 265.674 54.0958 265.932C49.2379 267.358 45.6203 269.891 44.163 275.017C43.9873 275.627 42.6126 276.165 41.7547 276.247C35.4705 276.816 29.0209 271.079 29.3517 265.002C30.0545 253.415 30.9744 241.839 31.946 230.273C32.3594 225.302 33.2586 220.382 33.7341 215.41C34.2509 210.108 33.0519 208.961 27.5842 208.175C21.1863 207.235 14.8918 206.873 9.12439 209.943C6.70579 207.679 4.53526 205.86 2.60246 203.813C-0.973753 200.01 -0.829044 195.545 2.81952 191.907C9.36212 185.354 10.8195 185.147 18.7781 189.705C21.7962 191.441 29.176 192.744 35.4602 192.465C35.6359 189.364 35.8529 186.139 35.9873 182.914C36.7418 164.372 37.517 145.829 38.1888 127.276C38.2509 125.674 37.5274 124.062 37.4447 122.429C37.1759 117.261 36.9072 112.331 38.623 107.09C40.5764 101.106 40.7831 94.5117 41.455 88.1448C42.6953 76.3412 43.9666 64.5273 44.7728 52.6928C45.6513 39.897 46.6126 27.0805 44.5041 14.264C43.8426 10.2124 42.7056 5.94365 47.3774 2.74986C54.1578 -1.89094 58.5919 -0.67131 62.5091 6.51212C63.7498 8.69425 64.4866 11.1263 64.6654 13.6301C64.8443 16.1339 64.4607 18.646 63.5427 20.9823C60.8037 28.0934 60.3593 35.3699 59.7598 42.6876C57.5169 69.9227 55.1913 97.1577 53.3619 124.413C52.0906 143.4 51.5841 162.429 50.7262 181.436C50.6642 185.602 50.4265 189.808 50.1991 194.749ZM47.2637 248.113C61.9613 235.71 76.9484 226.108 90.0852 212.175L48.6281 211.142C48.2146 222.521 47.7702 234.418 47.2637 248.113Z" fill="white"/>
</svg>
