<svg width="55" height="34" viewBox="0 0 55 34" fill="none" xmlns="http://www.w3.org/2000/svg">
<path d="M30.9375 11.9H49.8438L30.9375 2.55V11.9ZM6.875 0H34.375L55 10.2V30.6C55 31.5017 54.2757 32.3665 52.9864 33.0042C51.697 33.6418 49.9484 34 48.125 34H6.875C5.05164 34 3.30295 33.6418 2.01364 33.0042C0.724328 32.3665 0 31.5017 0 30.6V3.4C0 1.513 3.05937 0 6.875 0ZM34.375 30.6V28.9C34.375 26.639 25.1969 25.5 20.625 25.5C16.0531 25.5 6.875 26.639 6.875 28.9V30.6H34.375ZM20.625 17C18.8016 17 17.053 17.3582 15.7636 17.9958C14.4743 18.6335 13.75 19.4983 13.75 20.4C13.75 21.3017 14.4743 22.1665 15.7636 22.8042C17.053 23.4418 18.8016 23.8 20.625 23.8C22.4484 23.8 24.197 23.4418 25.4864 22.8042C26.7757 22.1665 27.5 21.3017 27.5 20.4C27.5 19.4983 26.7757 18.6335 25.4864 17.9958C24.197 17.3582 22.4484 17 20.625 17Z" fill="black"/>
</svg>
