<svg width="55" height="28" viewBox="0 0 55 28" fill="none" xmlns="http://www.w3.org/2000/svg">
<path d="M30.9375 9.8H49.8438L30.9375 2.1V9.8ZM6.875 0H34.375L55 8.4V25.2C55 25.9426 54.2757 26.6548 52.9864 27.1799C51.697 27.705 49.9484 28 48.125 28H6.875C5.05164 28 3.30295 27.705 2.01364 27.1799C0.724328 26.6548 0 25.9426 0 25.2V2.8C0 1.246 3.05938 0 6.875 0ZM34.375 25.2V23.8C34.375 21.938 25.1969 21 20.625 21C16.0531 21 6.875 21.938 6.875 23.8V25.2H34.375ZM20.625 14C18.8016 14 17.053 14.295 15.7636 14.8201C14.4743 15.3452 13.75 16.0574 13.75 16.8C13.75 17.5426 14.4743 18.2548 15.7636 18.7799C17.053 19.305 18.8016 19.6 20.625 19.6C22.4484 19.6 24.197 19.305 25.4864 18.7799C26.7757 18.2548 27.5 17.5426 27.5 16.8C27.5 16.0574 26.7757 15.3452 25.4864 14.8201C24.197 14.295 22.4484 14 20.625 14Z" fill="black"/>
</svg>
