<svg width="949" height="26" viewBox="0 0 949 26" fill="none" xmlns="http://www.w3.org/2000/svg">
<path d="M21.1896 25.9825C18.4082 25.9825 15.7362 25.6911 13.1737 25.1083C10.6331 24.5254 8.3773 23.6862 6.40617 22.5904C4.45694 21.4947 2.90194 20.1601 1.74116 18.5864C0.580388 17.0011 0 15.2177 0 13.236C0 11.2544 0.569437 9.45931 1.70831 7.85071C2.84719 6.23044 4.42409 4.83748 6.43902 3.67182C8.43205 2.51782 10.7865 1.62609 13.5022 0.996637C16.218 0.367182 19.12 0.0524546 22.2081 0.0524546C24.5077 0.0524546 26.5883 0.20399 28.45 0.507061C30.3116 0.810132 32.0856 1.2356 33.772 1.78346L35.1189 0.594486H37.7471L38.0428 9.44183H35.3489C34.9985 8.57924 34.4729 7.64672 33.772 6.64425C33.0712 5.63013 32.2499 4.77337 31.3081 4.07397C30.2568 3.28133 29.0084 2.66353 27.563 2.22058C26.1175 1.76597 24.4639 1.53867 22.6023 1.53867C20.4778 1.53867 18.4958 1.78928 16.656 2.29052C14.8382 2.79175 13.2613 3.53194 11.9253 4.5111C10.655 5.45528 9.65853 6.65591 8.93578 8.11298C8.21304 9.57005 7.85166 11.1961 7.85166 12.9913C7.85166 14.5766 8.22399 16.0336 8.96864 17.3625C9.73519 18.6797 10.8193 19.8395 12.221 20.842C13.6227 21.8328 15.2762 22.6079 17.1817 23.1675C19.109 23.727 21.2553 24.0067 23.6207 24.0067C25.3947 24.0067 27.0264 23.861 28.5157 23.5696C30.005 23.2665 31.2971 22.8702 32.3922 22.3806C33.4873 21.8677 34.451 21.2849 35.2832 20.6321C36.1155 19.9794 36.7944 19.2683 37.32 18.499L39.784 19.1284C37.9004 21.588 35.4037 23.3481 32.2937 24.4089C29.1837 25.458 25.4823 25.9825 21.1896 25.9825Z" fill="black"/>
<path d="M89.2921 25.4055H76.7426C73.9611 23.0859 71.4425 21.0809 69.1866 19.3907C66.9527 17.7005 64.5216 15.9579 61.8934 14.1627H57.1299V22.0309C57.1299 22.4389 57.2503 22.8003 57.4913 23.115C57.7322 23.4181 58.2469 23.6512 59.0353 23.8144C59.4295 23.896 60.1194 23.9718 61.105 24.0417C62.0906 24.1116 62.9228 24.1524 63.6018 24.1641V25.4055H43.8905V24.1641C44.4161 24.1408 45.1717 24.1 46.1573 24.0417C47.1647 23.9834 47.8656 23.9076 48.2598 23.8144C48.9168 23.6629 49.3877 23.4414 49.6724 23.15C49.9791 22.8586 50.1324 22.4855 50.1324 22.0309V4.09146C50.1324 3.68348 50.0229 3.32212 49.8039 3.0074C49.5848 2.69267 49.0702 2.45371 48.2598 2.29052C47.7123 2.18561 47.0005 2.09236 46.1244 2.01076C45.2484 1.91751 44.5037 1.85922 43.8905 1.83591V0.594486H65.4086C67.3798 0.594486 69.2304 0.705223 70.9606 0.926698C72.6909 1.13652 74.2568 1.48039 75.6585 1.95831C77.0164 2.42457 78.1005 3.03654 78.9109 3.79422C79.7212 4.54024 80.1264 5.44362 80.1264 6.50437C80.1264 7.46021 79.8526 8.30531 79.3051 9.03968C78.7576 9.77404 77.9472 10.4093 76.874 10.9455C75.8885 11.4468 74.7058 11.8839 73.326 12.2569C71.9462 12.6182 70.4241 12.9271 68.7595 13.1836C71.0592 14.8039 72.9646 16.1677 74.4758 17.275C76.0089 18.3824 77.8815 19.7288 80.0935 21.3141C81.0572 22.0134 81.9223 22.5322 82.6889 22.8702C83.4773 23.1966 84.2548 23.4647 85.0214 23.6745C85.5908 23.826 86.3026 23.9426 87.1568 24.0242C88.0109 24.1058 88.7227 24.1524 89.2921 24.1641V25.4055ZM72.0119 6.90652C72.0119 5.40282 71.2016 4.21385 69.5809 3.33961C67.9601 2.45371 65.6714 2.01076 62.7148 2.01076H57.1299V12.659H61.4335C64.4559 12.659 66.9746 12.1462 68.9895 11.1204C71.0044 10.0829 72.0119 8.67832 72.0119 6.90652Z" fill="black"/>
<path d="M130.324 18.0968L129.437 25.4055H90.7376V24.1641C91.3947 24.1408 92.2707 24.0941 93.3658 24.0242C94.4609 23.9426 95.1727 23.861 95.5012 23.7794C96.202 23.6046 96.6839 23.3773 96.9467 23.0975C97.2314 22.8178 97.3738 22.4622 97.3738 22.0309V4.19637C97.3738 3.8117 97.2533 3.47366 97.0124 3.18225C96.7715 2.87917 96.2677 2.63439 95.5012 2.44788C94.9099 2.29635 94.1105 2.1623 93.103 2.04573C92.1174 1.92916 91.329 1.85922 90.7376 1.83591V0.594486H126.809V6.57431H124.345C123.907 5.68841 122.955 4.75006 121.487 3.75925C120.042 2.75678 118.662 2.20892 117.348 2.11567C116.669 2.06904 115.859 2.03407 114.917 2.01076C113.975 1.98745 112.902 1.97579 111.697 1.97579H104.371V11.8373H109.628C111.314 11.8373 112.541 11.7557 113.307 11.5925C114.096 11.4176 114.785 11.132 115.377 10.7357C115.859 10.3977 116.264 9.94889 116.592 9.38937C116.943 8.8182 117.173 8.282 117.282 7.78077H119.746V17.4849H117.282C117.195 16.9254 116.954 16.3367 116.559 15.7189C116.187 15.0894 115.793 14.6348 115.377 14.3551C114.698 13.9005 113.92 13.6032 113.044 13.4633C112.19 13.3235 111.051 13.2535 109.628 13.2535H104.371V20.7021C104.371 21.4481 104.47 22.0368 104.667 22.4681C104.864 22.8993 105.247 23.2257 105.817 23.4472C106.386 23.6687 107.164 23.8144 108.149 23.8843C109.135 23.9426 110.537 23.9718 112.354 23.9718C113.077 23.9718 114.03 23.9718 115.212 23.9718C116.395 23.9718 117.392 23.9484 118.202 23.9018C119.034 23.8552 119.888 23.7736 120.764 23.657C121.662 23.5288 122.298 23.3598 122.67 23.15C123.677 22.5904 124.729 21.7453 125.824 20.6147C126.941 19.4723 127.652 18.633 127.959 18.0968H130.324Z" fill="black"/>
<path d="M178.551 25.4055H159.136V24.1641C160.844 24.1058 162.257 23.9892 163.374 23.8144C164.513 23.6395 165.082 23.4239 165.082 23.1675C165.082 23.0625 165.06 22.9343 165.016 22.7828C164.973 22.6312 164.907 22.4972 164.819 22.3806L160.943 16.8204H144.615C144.002 17.6364 143.498 18.3475 143.104 18.9536C142.732 19.5597 142.392 20.1193 142.086 20.6321C141.801 21.1334 141.604 21.5414 141.494 21.8561C141.385 22.1708 141.33 22.4273 141.33 22.6254C141.33 23.0917 142.02 23.453 143.4 23.7095C144.779 23.9659 146.334 24.1175 148.065 24.1641V25.4055H130.522V24.1641C131.091 24.1408 131.803 24.0767 132.657 23.9718C133.511 23.8552 134.212 23.7037 134.76 23.5171C135.636 23.2024 136.315 22.876 136.796 22.538C137.278 22.1883 137.749 21.7104 138.209 21.1042C140.552 17.9919 143.137 14.495 145.962 10.6133C148.787 6.73167 151.306 3.2755 153.518 0.244788H156.146L171.685 21.6463C172.014 22.1009 172.386 22.4681 172.802 22.7478C173.218 23.0276 173.799 23.3015 174.543 23.5696C175.047 23.7328 175.704 23.8727 176.515 23.9892C177.325 24.0941 178.004 24.1524 178.551 24.1641V25.4055ZM159.76 15.2643L152.697 5.64761L145.765 15.2643H159.76Z" fill="black"/>
<path d="M218.105 7.32616H215.839C215.642 6.90652 215.28 6.41112 214.754 5.83995C214.251 5.25712 213.681 4.70926 213.046 4.19637C212.389 3.66017 211.666 3.1939 210.878 2.79758C210.111 2.3896 209.367 2.15647 208.644 2.09818C207.965 2.05156 207.111 2.01659 206.082 1.99327C205.052 1.96996 204.099 1.95831 203.223 1.95831H201.318V21.8036C201.318 22.1883 201.471 22.5438 201.778 22.8702C202.085 23.1849 202.621 23.4297 203.388 23.6046C203.782 23.6862 204.603 23.7969 205.852 23.9368C207.122 24.0767 208.107 24.1524 208.808 24.1641V25.4055H186.797V24.1641C187.411 24.1408 188.341 24.0941 189.59 24.0242C190.86 23.9543 191.736 23.8668 192.218 23.7619C192.941 23.6104 193.466 23.3948 193.795 23.115C194.145 22.8236 194.32 22.4389 194.32 21.961V1.95831H192.415C191.736 1.95831 190.893 1.96996 189.885 1.99327C188.878 2.00493 187.914 2.0399 186.994 2.09818C186.272 2.14481 185.516 2.37794 184.728 2.79758C183.961 3.20556 183.249 3.67182 182.592 4.19637C181.935 4.72091 181.355 5.28043 180.851 5.87492C180.347 6.45774 179.997 6.94149 179.8 7.32616H177.5V0.594486H218.105V7.32616Z" fill="black"/>
<path d="M242.252 25.4055H221.259V24.1641C221.851 24.1408 222.705 24.1058 223.822 24.0592C224.939 24.0126 225.727 23.9426 226.187 23.8494C226.91 23.6978 227.435 23.4938 227.764 23.2374C228.092 22.9693 228.257 22.6021 228.257 22.1358V4.1614C228.257 3.75342 228.136 3.41538 227.895 3.14728C227.654 2.86752 227.085 2.63439 226.187 2.44788C225.53 2.308 224.698 2.17978 223.69 2.06321C222.705 1.93499 221.894 1.85922 221.259 1.83591V0.594486H242.252V1.83591C241.573 1.84757 240.762 1.89419 239.821 1.97579C238.879 2.04573 238.058 2.13898 237.357 2.25555C236.525 2.39543 235.966 2.62273 235.681 2.93746C235.397 3.25219 235.254 3.60188 235.254 3.98655V21.9435C235.254 22.3282 235.408 22.672 235.714 22.9751C236.043 23.2665 236.59 23.4997 237.357 23.6745C237.817 23.7678 238.561 23.8727 239.591 23.9892C240.642 24.0941 241.529 24.1524 242.252 24.1641V25.4055Z" fill="black"/>
<path d="M291.103 1.83591C290.533 1.84757 289.844 1.91751 289.033 2.04573C288.223 2.1623 287.555 2.308 287.029 2.48285C286.285 2.72764 285.682 3.04237 285.222 3.42703C284.784 3.8117 284.346 4.26631 283.908 4.79085C282.441 6.64425 280.24 9.53508 277.305 13.4633C274.37 17.38 271.348 21.4656 268.238 25.7202H265.511C262.357 21.2091 259.313 16.8612 256.378 12.6765C253.443 8.49182 251.45 5.6651 250.399 4.19637C250.136 3.83501 249.786 3.52029 249.348 3.25219C248.91 2.97243 248.329 2.71015 247.607 2.46537C247.015 2.2672 246.358 2.1215 245.636 2.02824C244.913 1.92334 244.245 1.85922 243.632 1.83591V0.594486H262.916V1.83591C261.273 1.88254 259.882 1.96996 258.744 2.09818C257.627 2.22641 257.068 2.45371 257.068 2.78009C257.068 2.90832 257.112 3.05985 257.199 3.2347C257.287 3.40955 257.364 3.54943 257.429 3.65434C258.24 4.79668 259.554 6.66173 261.372 9.2495C263.19 11.8256 265.774 15.4974 269.125 20.265C270.789 18.1085 272.706 15.5615 274.874 12.6241C277.042 9.68662 278.499 7.67003 279.243 6.57431C279.966 5.51356 280.382 4.7792 280.492 4.37122C280.623 3.96324 280.689 3.63102 280.689 3.37458C280.689 3.10648 280.459 2.885 279.999 2.71015C279.561 2.52365 278.969 2.36629 278.225 2.23806C277.502 2.1215 276.768 2.03407 276.024 1.97579C275.279 1.91751 274.524 1.87088 273.757 1.83591V0.594486H291.103V1.83591Z" fill="black"/>
<path d="M332.168 18.0968L331.281 25.4055H292.581V24.1641C293.238 24.1408 294.114 24.0941 295.209 24.0242C296.304 23.9426 297.016 23.861 297.345 23.7794C298.046 23.6046 298.527 23.3773 298.79 23.0975C299.075 22.8178 299.217 22.4622 299.217 22.0309V4.19637C299.217 3.8117 299.097 3.47366 298.856 3.18225C298.615 2.87917 298.111 2.63439 297.345 2.44788C296.753 2.29635 295.954 2.1623 294.947 2.04573C293.961 1.92916 293.173 1.85922 292.581 1.83591V0.594486H328.653V6.57431H326.189C325.751 5.68841 324.798 4.75006 323.331 3.75925C321.885 2.75678 320.506 2.20892 319.191 2.11567C318.513 2.06904 317.702 2.03407 316.76 2.01076C315.819 1.98745 314.745 1.97579 313.541 1.97579H306.215V11.8373H311.471C313.158 11.8373 314.384 11.7557 315.151 11.5925C315.939 11.4176 316.629 11.132 317.22 10.7357C317.702 10.3977 318.107 9.94889 318.436 9.38937C318.786 8.8182 319.016 8.282 319.126 7.78077H321.59V17.4849H319.126C319.038 16.9254 318.797 16.3367 318.403 15.7189C318.031 15.0894 317.636 14.6348 317.22 14.3551C316.541 13.9005 315.764 13.6032 314.888 13.4633C314.034 13.3235 312.895 13.2535 311.471 13.2535H306.215V20.7021C306.215 21.4481 306.313 22.0368 306.511 22.4681C306.708 22.8993 307.091 23.2257 307.66 23.4472C308.23 23.6687 309.007 23.8144 309.993 23.8843C310.978 23.9426 312.38 23.9718 314.198 23.9718C314.921 23.9718 315.873 23.9718 317.056 23.9718C318.239 23.9718 319.235 23.9484 320.046 23.9018C320.878 23.8552 321.732 23.7736 322.608 23.657C323.506 23.5288 324.141 23.3598 324.514 23.15C325.521 22.5904 326.572 21.7453 327.667 20.6147C328.784 19.4723 329.496 18.633 329.803 18.0968H332.168Z" fill="black"/>
<path d="M397.807 13.1486C397.807 15.2585 397.062 17.0885 395.573 18.6389C394.083 20.1892 392.145 21.4598 389.758 22.4506C387.349 23.4414 384.644 24.1816 381.643 24.6711C378.643 25.1607 375.544 25.4055 372.346 25.4055H353.029V24.1641C353.664 24.1641 354.486 24.1349 355.493 24.0767C356.522 24.0067 357.201 23.931 357.53 23.8494C358.187 23.6978 358.658 23.4763 358.943 23.1849C359.249 22.8819 359.403 22.5205 359.403 22.1009V4.19637C359.403 3.80004 359.271 3.44452 359.008 3.12979C358.767 2.81506 358.275 2.56445 357.53 2.37794C356.851 2.20309 356.117 2.07487 355.329 1.99327C354.54 1.91168 353.861 1.85922 353.292 1.83591V0.594486H373.66C376.464 0.594486 379.223 0.827617 381.939 1.29388C384.655 1.74849 387.02 2.36629 389.035 3.14728C391.773 4.18471 393.919 5.5427 395.474 7.22125C397.029 8.8998 397.807 10.8756 397.807 13.1486ZM389.758 13.1311C389.758 11.4642 389.342 9.96055 388.51 8.62004C387.677 7.26788 386.462 6.09056 384.863 5.0881C383.352 4.13226 381.49 3.38041 379.278 2.83255C377.088 2.28469 374.646 2.01076 371.952 2.01076C371.054 2.01076 370.036 2.02242 368.897 2.04573C367.78 2.05739 366.948 2.06904 366.4 2.0807V21.1567C366.4 22.2174 366.98 22.9518 368.141 23.3598C369.302 23.7678 371.087 23.9718 373.496 23.9718C376.278 23.9718 378.709 23.7095 380.789 23.1849C382.87 22.6604 384.556 21.9319 385.848 20.9993C387.206 20.0202 388.192 18.8895 388.805 17.6073C389.44 16.3134 389.758 14.8213 389.758 13.1311Z" fill="black"/>
<path d="M442.748 18.0968L441.861 25.4055H403.162V24.1641C403.819 24.1408 404.695 24.0941 405.79 24.0242C406.885 23.9426 407.597 23.861 407.925 23.7794C408.626 23.6046 409.108 23.3773 409.371 23.0975C409.655 22.8178 409.798 22.4622 409.798 22.0309V4.19637C409.798 3.8117 409.677 3.47366 409.436 3.18225C409.195 2.87917 408.692 2.63439 407.925 2.44788C407.334 2.29635 406.534 2.1623 405.527 2.04573C404.541 1.92916 403.753 1.85922 403.162 1.83591V0.594486H439.233V6.57431H436.769C436.331 5.68841 435.379 4.75006 433.911 3.75925C432.466 2.75678 431.086 2.20892 429.772 2.11567C429.093 2.06904 428.283 2.03407 427.341 2.01076C426.399 1.98745 425.326 1.97579 424.121 1.97579H416.795V11.8373H422.052C423.738 11.8373 424.964 11.7557 425.731 11.5925C426.519 11.4176 427.209 11.132 427.801 10.7357C428.283 10.3977 428.688 9.94889 429.016 9.38937C429.367 8.8182 429.597 8.282 429.706 7.78077H432.17V17.4849H429.706C429.618 16.9254 429.378 16.3367 428.983 15.7189C428.611 15.0894 428.217 14.6348 427.801 14.3551C427.122 13.9005 426.344 13.6032 425.468 13.4633C424.614 13.3235 423.475 13.2535 422.052 13.2535H416.795V20.7021C416.795 21.4481 416.894 22.0368 417.091 22.4681C417.288 22.8993 417.671 23.2257 418.241 23.4472C418.81 23.6687 419.588 23.8144 420.573 23.8843C421.559 23.9426 422.96 23.9718 424.778 23.9718C425.501 23.9718 426.454 23.9718 427.636 23.9718C428.819 23.9718 429.816 23.9484 430.626 23.9018C431.458 23.8552 432.312 23.7736 433.188 23.657C434.086 23.5288 434.722 23.3598 435.094 23.15C436.101 22.5904 437.153 21.7453 438.248 20.6147C439.365 19.4723 440.076 18.633 440.383 18.0968H442.748Z" fill="black"/>
<path d="M490.515 1.83591C489.946 1.84757 489.256 1.91751 488.446 2.04573C487.635 2.1623 486.967 2.308 486.442 2.48285C485.697 2.72764 485.095 3.04237 484.635 3.42703C484.197 3.8117 483.759 4.26631 483.321 4.79085C481.853 6.64425 479.652 9.53508 476.718 13.4633C473.783 17.38 470.76 21.4656 467.65 25.7202H464.924C461.77 21.2091 458.726 16.8612 455.791 12.6765C452.856 8.49182 450.863 5.6651 449.812 4.19637C449.549 3.83501 449.198 3.52029 448.76 3.25219C448.322 2.97243 447.742 2.71015 447.019 2.46537C446.428 2.2672 445.771 2.1215 445.048 2.02824C444.325 1.92334 443.657 1.85922 443.044 1.83591V0.594486H462.328V1.83591C460.686 1.88254 459.295 1.96996 458.156 2.09818C457.039 2.22641 456.481 2.45371 456.481 2.78009C456.481 2.90832 456.524 3.05985 456.612 3.2347C456.7 3.40955 456.776 3.54943 456.842 3.65434C457.652 4.79668 458.966 6.66173 460.784 9.2495C462.602 11.8256 465.186 15.4974 468.537 20.265C470.202 18.1085 472.118 15.5615 474.286 12.6241C476.455 9.68662 477.911 7.67003 478.656 6.57431C479.379 5.51356 479.795 4.7792 479.904 4.37122C480.036 3.96324 480.101 3.63102 480.101 3.37458C480.101 3.10648 479.871 2.885 479.411 2.71015C478.973 2.52365 478.382 2.36629 477.637 2.23806C476.915 2.1215 476.181 2.03407 475.436 1.97579C474.692 1.91751 473.936 1.87088 473.169 1.83591V0.594486H490.515V1.83591Z" fill="black"/>
<path d="M531.581 18.0968L530.694 25.4055H491.994V24.1641C492.651 24.1408 493.527 24.0941 494.622 24.0242C495.717 23.9426 496.429 23.861 496.757 23.7794C497.458 23.6046 497.94 23.3773 498.203 23.0975C498.488 22.8178 498.63 22.4622 498.63 22.0309V4.19637C498.63 3.8117 498.509 3.47366 498.269 3.18225C498.028 2.87917 497.524 2.63439 496.757 2.44788C496.166 2.29635 495.367 2.1623 494.359 2.04573C493.374 1.92916 492.585 1.85922 491.994 1.83591V0.594486H528.065V6.57431H525.602C525.163 5.68841 524.211 4.75006 522.743 3.75925C521.298 2.75678 519.918 2.20892 518.604 2.11567C517.925 2.06904 517.115 2.03407 516.173 2.01076C515.231 1.98745 514.158 1.97579 512.953 1.97579H505.627V11.8373H510.884C512.57 11.8373 513.797 11.7557 514.563 11.5925C515.352 11.4176 516.042 11.132 516.633 10.7357C517.115 10.3977 517.52 9.94889 517.848 9.38937C518.199 8.8182 518.429 8.282 518.538 7.78077H521.002V17.4849H518.538C518.451 16.9254 518.21 16.3367 517.816 15.7189C517.443 15.0894 517.049 14.6348 516.633 14.3551C515.954 13.9005 515.176 13.6032 514.3 13.4633C513.446 13.3235 512.307 13.2535 510.884 13.2535H505.627V20.7021C505.627 21.4481 505.726 22.0368 505.923 22.4681C506.12 22.8993 506.503 23.2257 507.073 23.4472C507.642 23.6687 508.42 23.8144 509.405 23.8843C510.391 23.9426 511.793 23.9718 513.61 23.9718C514.333 23.9718 515.286 23.9718 516.469 23.9718C517.651 23.9718 518.648 23.9484 519.458 23.9018C520.29 23.8552 521.145 23.7736 522.021 23.657C522.919 23.5288 523.554 23.3598 523.926 23.15C524.934 22.5904 525.985 21.7453 527.08 20.6147C528.197 19.4723 528.909 18.633 529.215 18.0968H531.581Z" fill="black"/>
<path d="M573.763 18.0269L572.777 25.4055H536.344V24.1641C536.87 24.1408 537.625 24.1 538.611 24.0417C539.618 23.9834 540.319 23.9076 540.714 23.8144C541.371 23.6629 541.841 23.4414 542.126 23.15C542.433 22.8586 542.586 22.4855 542.586 22.0309V4.26631C542.586 3.86998 542.455 3.52029 542.192 3.21722C541.951 2.91414 541.458 2.66936 540.714 2.48285C540.21 2.34297 539.498 2.20892 538.578 2.0807C537.68 1.94082 536.936 1.85922 536.344 1.83591V0.594486H556.023V1.83591C555.409 1.84757 554.61 1.90585 553.624 2.01076C552.661 2.11567 551.96 2.20892 551.522 2.29052C550.777 2.4304 550.263 2.66936 549.978 3.0074C549.715 3.34544 549.584 3.70679 549.584 4.09146V20.7545C549.584 21.5239 549.649 22.1242 549.781 22.5555C549.934 22.9751 550.273 23.3015 550.799 23.5346C551.303 23.7445 552.048 23.8843 553.033 23.9543C554.041 24.0126 555.442 24.0417 557.238 24.0417C558.048 24.0417 558.892 24.03 559.768 24.0067C560.644 23.9834 561.476 23.9368 562.265 23.8668C563.031 23.7969 563.732 23.7037 564.367 23.5871C565.024 23.4589 565.506 23.3015 565.813 23.115C566.711 22.5788 567.751 21.7687 568.934 20.6846C570.138 19.5889 570.97 18.703 571.43 18.0269H573.763Z" fill="black"/>
<path d="M614.598 3.53194C616.657 4.67429 618.266 6.05559 619.427 7.67586C620.588 9.28446 621.168 11.0679 621.168 13.0262C621.168 14.9962 620.577 16.7855 619.394 18.3941C618.212 20.0027 616.569 21.3723 614.467 22.503C612.43 23.6221 610.064 24.4846 607.371 25.0908C604.677 25.6969 601.808 26 598.763 26C595.522 26 592.521 25.6794 589.762 25.0383C587.024 24.3856 584.67 23.4822 582.699 22.3282C580.727 21.1975 579.172 19.8278 578.034 18.2192C576.917 16.599 576.358 14.868 576.358 13.0262C576.358 11.0096 576.949 9.21453 578.132 7.64089C579.315 6.05559 580.946 4.68594 583.027 3.53194C585.086 2.3896 587.473 1.51536 590.189 0.909213C592.927 0.303071 595.785 0 598.763 0C601.851 0 604.764 0.308899 607.502 0.926698C610.24 1.5445 612.605 2.41291 614.598 3.53194ZM609.703 21.1217C610.93 20.061 611.817 18.8603 612.364 17.5198C612.933 16.1793 613.218 14.6815 613.218 13.0262C613.218 11.3244 612.901 9.76238 612.265 8.34028C611.652 6.91818 610.743 5.7059 609.539 4.70343C608.334 3.71262 606.823 2.94329 605.005 2.39543C603.187 1.83591 601.107 1.55615 598.763 1.55615C596.135 1.55615 593.901 1.87671 592.061 2.51782C590.222 3.15893 588.721 4.01569 587.561 5.0881C586.466 6.11388 585.644 7.3145 585.097 8.68998C584.571 10.0655 584.308 11.5109 584.308 13.0262C584.308 14.7048 584.593 16.2201 585.162 17.5723C585.732 18.9245 586.63 20.1251 587.856 21.1742C589.039 22.2 590.528 23.0043 592.324 23.5871C594.12 24.1583 596.266 24.4438 598.763 24.4438C601.107 24.4438 603.22 24.1524 605.104 23.5696C606.987 22.9868 608.52 22.1708 609.703 21.1217Z" fill="black"/>
<path d="M662.694 6.71419C662.694 8.00807 662.212 9.15624 661.248 10.1587C660.306 11.1495 658.992 11.9713 657.306 12.6241C655.641 13.2768 653.813 13.7548 651.819 14.0578C649.826 14.3609 647.713 14.5124 645.479 14.5124H640.256V22.0309C640.256 22.4389 640.376 22.8003 640.617 23.115C640.88 23.4181 641.405 23.6512 642.194 23.8144C642.588 23.896 643.278 23.9718 644.263 24.0417C645.271 24.1116 646.191 24.1524 647.023 24.1641V25.4055H627.016V24.1641C627.542 24.1408 628.297 24.1 629.283 24.0417C630.29 23.9834 630.991 23.9076 631.385 23.8144C632.042 23.6629 632.513 23.4414 632.798 23.15C633.105 22.8586 633.258 22.4855 633.258 22.0309V4.12643C633.258 3.71845 633.149 3.35127 632.929 3.02488C632.71 2.6985 632.196 2.45371 631.385 2.29052C630.553 2.13898 629.721 2.03407 628.889 1.97579C628.078 1.90585 627.377 1.85922 626.786 1.83591V0.594486H648.074C652.411 0.594486 655.926 1.154 658.62 2.27303C661.336 3.38041 662.694 4.86079 662.694 6.71419ZM652.706 10.9455C653.451 10.386 653.944 9.80901 654.185 9.21453C654.426 8.60838 654.546 8.06635 654.546 7.58843C654.546 6.92401 654.393 6.24793 654.086 5.56019C653.802 4.87245 653.298 4.27214 652.575 3.75925C651.809 3.21139 650.801 2.78592 649.553 2.48285C648.304 2.17978 646.749 2.02824 644.888 2.02824H640.256V12.9913H643.606C645.972 12.9913 647.888 12.7989 649.356 12.4143C650.845 12.0179 651.962 11.5284 652.706 10.9455Z" fill="black"/>
<path d="M703.759 6.71419C703.759 8.00807 703.277 9.15624 702.313 10.1587C701.371 11.1495 700.057 11.9713 698.371 12.6241C696.706 13.2768 694.878 13.7548 692.885 14.0578C690.892 14.3609 688.778 14.5124 686.544 14.5124H681.321V22.0309C681.321 22.4389 681.441 22.8003 681.682 23.115C681.945 23.4181 682.471 23.6512 683.259 23.8144C683.653 23.896 684.343 23.9718 685.329 24.0417C686.336 24.1116 687.256 24.1524 688.088 24.1641V25.4055H668.081V24.1641C668.607 24.1408 669.363 24.1 670.348 24.0417C671.356 23.9834 672.056 23.9076 672.451 23.8144C673.108 23.6629 673.579 23.4414 673.863 23.15C674.17 22.8586 674.323 22.4855 674.323 22.0309V4.12643C674.323 3.71845 674.214 3.35127 673.995 3.02488C673.776 2.6985 673.261 2.45371 672.451 2.29052C671.618 2.13898 670.786 2.03407 669.954 1.97579C669.144 1.90585 668.443 1.85922 667.851 1.83591V0.594486H689.14C693.476 0.594486 696.991 1.154 699.685 2.27303C702.401 3.38041 703.759 4.86079 703.759 6.71419ZM693.772 10.9455C694.516 10.386 695.009 9.80901 695.25 9.21453C695.491 8.60838 695.611 8.06635 695.611 7.58843C695.611 6.92401 695.458 6.24793 695.151 5.56019C694.867 4.87245 694.363 4.27214 693.64 3.75925C692.874 3.21139 691.866 2.78592 690.618 2.48285C689.369 2.17978 687.814 2.02824 685.953 2.02824H681.321V12.9913H684.672C687.037 12.9913 688.953 12.7989 690.421 12.4143C691.91 12.0179 693.027 11.5284 693.772 10.9455Z" fill="black"/>
<path d="M748.339 18.0968L747.452 25.4055H708.752V24.1641C709.409 24.1408 710.285 24.0941 711.38 24.0242C712.475 23.9426 713.187 23.861 713.516 23.7794C714.217 23.6046 714.698 23.3773 714.961 23.0975C715.246 22.8178 715.388 22.4622 715.388 22.0309V4.19637C715.388 3.8117 715.268 3.47366 715.027 3.18225C714.786 2.87917 714.282 2.63439 713.516 2.44788C712.924 2.29635 712.125 2.1623 711.118 2.04573C710.132 1.92916 709.344 1.85922 708.752 1.83591V0.594486H744.824V6.57431H742.36C741.922 5.68841 740.969 4.75006 739.502 3.75925C738.056 2.75678 736.677 2.20892 735.362 2.11567C734.684 2.06904 733.873 2.03407 732.931 2.01076C731.99 1.98745 730.917 1.97579 729.712 1.97579H722.386V11.8373H727.642C729.329 11.8373 730.555 11.7557 731.322 11.5925C732.11 11.4176 732.8 11.132 733.391 10.7357C733.873 10.3977 734.278 9.94889 734.607 9.38937C734.957 8.8182 735.187 8.282 735.297 7.78077H737.761V17.4849H735.297C735.209 16.9254 734.968 16.3367 734.574 15.7189C734.202 15.0894 733.807 14.6348 733.391 14.3551C732.712 13.9005 731.935 13.6032 731.059 13.4633C730.205 13.3235 729.066 13.2535 727.642 13.2535H722.386V20.7021C722.386 21.4481 722.484 22.0368 722.682 22.4681C722.879 22.8993 723.262 23.2257 723.831 23.4472C724.401 23.6687 725.178 23.8144 726.164 23.8843C727.149 23.9426 728.551 23.9718 730.369 23.9718C731.092 23.9718 732.044 23.9718 733.227 23.9718C734.41 23.9718 735.406 23.9484 736.217 23.9018C737.049 23.8552 737.903 23.7736 738.779 23.657C739.677 23.5288 740.312 23.3598 740.685 23.15C741.692 22.5904 742.743 21.7453 743.838 20.6147C744.955 19.4723 745.667 18.633 745.974 18.0968H748.339Z" fill="black"/>
<path d="M809.214 25.4055H788.616V24.1641C789.36 24.1524 790.313 24.1116 791.474 24.0417C792.657 23.9718 793.467 23.8727 793.905 23.7445C794.584 23.523 795.077 23.2724 795.383 22.9926C795.712 22.7012 795.876 22.3398 795.876 21.9085V3.86416H795.383L779.483 25.0034H777.84L762.695 3.42703H762.268V18.2367C762.268 19.6705 762.433 20.7604 762.761 21.5064C763.112 22.2524 763.637 22.7886 764.338 23.115C764.82 23.3598 765.816 23.5929 767.328 23.8144C768.839 24.0359 769.824 24.1524 770.284 24.1641V25.4055H751.46V24.1641C752.446 24.1175 753.475 24.03 754.548 23.9018C755.643 23.7736 756.486 23.5813 757.078 23.3248C757.844 22.9984 758.37 22.4972 758.655 21.8211C758.939 21.145 759.082 20.0143 759.082 18.4291V5.73504C759.082 5.00067 758.917 4.40036 758.589 3.9341C758.26 3.46783 757.79 3.08899 757.176 2.79758C756.497 2.48285 755.665 2.24972 754.68 2.09818C753.694 1.94665 752.719 1.85922 751.756 1.83591V0.594486H767.656L780.994 19.1984L792.394 3.63685C792.81 3.06568 793.16 2.47119 793.445 1.8534C793.752 1.22394 793.916 0.804304 793.938 0.594486H809.148V1.83591C808.535 1.84757 807.747 1.90002 806.783 1.99327C805.841 2.08653 805.151 2.17395 804.713 2.25555C803.969 2.39543 803.465 2.62856 803.202 2.95494C802.939 3.28133 802.808 3.63685 802.808 4.02152V21.9085C802.808 22.3165 802.939 22.6604 803.202 22.9401C803.465 23.2199 803.969 23.4647 804.713 23.6745C805.108 23.7911 805.808 23.9018 806.816 24.0067C807.823 24.1 808.623 24.1524 809.214 24.1641V25.4055Z" fill="black"/>
<path d="M854.714 18.0968L853.827 25.4055H815.128V24.1641C815.785 24.1408 816.661 24.0941 817.756 24.0242C818.851 23.9426 819.563 23.861 819.891 23.7794C820.592 23.6046 821.074 23.3773 821.337 23.0975C821.621 22.8178 821.764 22.4622 821.764 22.0309V4.19637C821.764 3.8117 821.643 3.47366 821.402 3.18225C821.161 2.87917 820.658 2.63439 819.891 2.44788C819.3 2.29635 818.5 2.1623 817.493 2.04573C816.507 1.92916 815.719 1.85922 815.128 1.83591V0.594486H851.199V6.57431H848.735C848.297 5.68841 847.345 4.75006 845.877 3.75925C844.432 2.75678 843.052 2.20892 841.738 2.11567C841.059 2.06904 840.248 2.03407 839.307 2.01076C838.365 1.98745 837.292 1.97579 836.087 1.97579H828.761V11.8373H834.017C835.704 11.8373 836.93 11.7557 837.697 11.5925C838.485 11.4176 839.175 11.132 839.767 10.7357C840.248 10.3977 840.654 9.94889 840.982 9.38937C841.333 8.8182 841.563 8.282 841.672 7.78077H844.136V17.4849H841.672C841.584 16.9254 841.344 16.3367 840.949 15.7189C840.577 15.0894 840.183 14.6348 839.767 14.3551C839.088 13.9005 838.31 13.6032 837.434 13.4633C836.58 13.3235 835.441 13.2535 834.017 13.2535H828.761V20.7021C828.761 21.4481 828.86 22.0368 829.057 22.4681C829.254 22.8993 829.637 23.2257 830.207 23.4472C830.776 23.6687 831.554 23.8144 832.539 23.8843C833.525 23.9426 834.926 23.9718 836.744 23.9718C837.467 23.9718 838.42 23.9718 839.602 23.9718C840.785 23.9718 841.782 23.9484 842.592 23.9018C843.424 23.8552 844.278 23.7736 845.154 23.657C846.052 23.5288 846.687 23.3598 847.06 23.15C848.067 22.5904 849.119 21.7453 850.214 20.6147C851.331 19.4723 852.042 18.633 852.349 18.0968H854.714Z" fill="black"/>
<path d="M907.311 1.83591C906.697 1.84757 905.756 1.94082 904.485 2.11567C903.215 2.29052 902.306 2.47119 901.759 2.6577C900.97 2.94911 900.434 3.50863 900.149 4.33625C899.886 5.16386 899.755 6.21296 899.755 7.48352V25.6503H896.897L868.644 5.35037V18.1493C868.644 19.5831 868.808 20.6846 869.136 21.4539C869.487 22.2233 870.013 22.7711 870.713 23.0975C871.217 23.354 872.257 23.5929 873.834 23.8144C875.411 24.0359 876.452 24.1524 876.955 24.1641V25.4055H857.835V24.1641C858.427 24.1408 859.423 24.03 860.825 23.8319C862.227 23.6221 863.103 23.4356 863.453 23.2724C864.22 22.946 864.745 22.4506 865.03 21.7861C865.315 21.1101 865.457 19.9619 865.457 18.3416V6.1197C865.457 5.5835 865.282 5.0473 864.931 4.5111C864.581 3.97489 864.11 3.56108 863.519 3.26967C862.73 2.885 861.657 2.55862 860.299 2.29052C858.963 2.01076 857.879 1.85922 857.047 1.83591V0.594486H870.352L896.568 19.5131V7.71083C896.568 6.26541 896.393 5.15804 896.042 4.3887C895.692 3.60771 895.188 3.08899 894.531 2.83255C893.918 2.61107 892.91 2.39543 891.509 2.18561C890.129 1.97579 889.078 1.85922 888.355 1.83591V0.594486H907.311V1.83591Z" fill="black"/>
<path d="M949 7.32616H946.733C946.536 6.90652 946.175 6.41112 945.649 5.83995C945.145 5.25712 944.576 4.70926 943.941 4.19637C943.284 3.66017 942.561 3.1939 941.773 2.79758C941.006 2.3896 940.261 2.15647 939.539 2.09818C938.86 2.05156 938.005 2.01659 936.976 1.99327C935.947 1.96996 934.994 1.95831 934.118 1.95831H932.213V21.8036C932.213 22.1883 932.366 22.5438 932.672 22.8702C932.979 23.1849 933.516 23.4297 934.282 23.6046C934.676 23.6862 935.498 23.7969 936.746 23.9368C938.016 24.0767 939.002 24.1524 939.703 24.1641V25.4055H917.692V24.1641C918.305 24.1408 919.236 24.0941 920.484 24.0242C921.755 23.9543 922.631 23.8668 923.113 23.7619C923.835 23.6104 924.361 23.3948 924.689 23.115C925.04 22.8236 925.215 22.4389 925.215 21.961V1.95831H923.31C922.631 1.95831 921.787 1.96996 920.78 1.99327C919.773 2.00493 918.809 2.0399 917.889 2.09818C917.166 2.14481 916.411 2.37794 915.622 2.79758C914.856 3.20556 914.144 3.67182 913.487 4.19637C912.83 4.72091 912.249 5.28043 911.746 5.87492C911.242 6.45774 910.892 6.94149 910.694 7.32616H908.395V0.594486H949V7.32616Z" fill="black"/>
</svg>
