<svg width="943" height="69" viewBox="0 0 943 69" fill="none" xmlns="http://www.w3.org/2000/svg">
<path d="M161.166 13.4771C165.095 14.0386 167.976 14.6563 169.81 15.3302C171.731 15.9928 172.691 16.7677 172.691 17.655C172.691 19.7664 166.623 21.5072 154.487 22.8774C142.351 24.2475 127.29 24.9326 109.304 24.9326C101.009 24.9326 92.715 24.7698 84.4205 24.4441C76.1261 24.1071 68.9666 23.7028 62.9422 23.2311L57.3107 24.4609H46.8335L45 16.2736H55.6082C57.7909 17.2844 60.3229 18.1997 63.2042 19.0195C66.1727 19.8282 70.058 20.5863 74.8601 21.2938C79.4002 21.9564 84.6825 22.4843 90.7069 22.8774C96.8186 23.2704 103.891 23.467 111.923 23.467C117.948 23.467 123.186 23.3659 127.639 23.1637C132.179 22.9616 135.846 22.6752 138.64 22.3046C141.434 21.934 143.486 21.5016 144.796 21.0074C146.192 20.502 146.891 19.9236 146.891 19.2722C146.891 18.3176 144.796 17.4304 140.605 16.6105C136.414 15.7794 130.171 15.1505 121.877 14.7237C116.201 14.4317 109.697 14.1116 102.363 13.7635C95.0287 13.4041 88.6987 13.0672 83.3728 12.7527C72.8956 12.1462 64.7321 11.3544 58.8823 10.3774C53.1198 9.38904 50.2386 8.1031 50.2386 6.51954C50.2386 5.60984 51.6792 4.7619 54.5605 3.97574C57.4417 3.18958 61.5453 2.48765 66.8712 1.86995C71.9352 1.28594 77.9159 0.831087 84.8134 0.505391C91.7109 0.168464 98.914 0 106.423 0C114.979 0 122.619 0.168464 129.342 0.505391C136.152 0.842318 142.351 1.2354 147.939 1.68464L153.308 0.539084H163.785L164.833 8.47372H154.225C152.304 7.56402 150.121 6.69362 147.677 5.86253C145.319 5.03145 142.22 4.27898 138.378 3.60512C134.624 2.95373 130.04 2.43711 124.627 2.05526C119.214 1.66217 112.578 1.46563 104.72 1.46563C96.4257 1.46563 89.3536 1.80818 83.5038 2.49326C77.654 3.17835 74.7291 4.01505 74.7291 5.00337C74.7291 6.03661 76.6063 6.89578 80.3606 7.58086C84.115 8.25472 89.5718 8.81065 96.7313 9.24865C103.105 9.64173 109.348 9.98428 115.459 10.2763C121.658 10.5571 127.639 10.8603 133.402 11.186C138.64 11.478 143.66 11.8093 148.463 12.1799C153.352 12.5505 157.586 12.9829 161.166 13.4771Z" fill="black"/>
<path d="M347.137 7.02493H338.1C337.314 6.62062 335.874 6.14331 333.778 5.59299C331.77 5.03145 329.5 4.50359 326.968 4.00943C324.349 3.49281 321.468 3.04358 318.324 2.66172C315.269 2.26864 312.3 2.04403 309.419 1.98787C306.712 1.94295 303.307 1.90925 299.204 1.88679C295.1 1.86433 291.302 1.8531 287.81 1.8531H280.214V20.9737C280.214 21.3443 280.825 21.6869 282.047 22.0013C283.269 22.3046 285.409 22.5404 288.464 22.7089C290.036 22.7875 293.31 22.8942 298.287 23.029C303.351 23.1637 307.28 23.2367 310.074 23.248V24.4441H222.327V23.248C224.772 23.2255 228.482 23.1806 233.459 23.1132C238.523 23.0458 242.015 22.9616 243.936 22.8605C246.817 22.7145 248.913 22.5067 250.223 22.2372C251.62 21.9564 252.318 21.5858 252.318 21.1253V1.8531H244.722C242.015 1.8531 238.654 1.86433 234.638 1.88679C230.621 1.89802 226.78 1.93172 223.113 1.98787C220.232 2.03279 217.219 2.25741 214.076 2.66172C211.02 3.05481 208.183 3.50404 205.563 4.00943C202.944 4.51482 200.63 5.05391 198.622 5.62668C196.614 6.18823 195.217 6.65431 194.431 7.02493H185.264V0.539084H347.137V7.02493Z" fill="black"/>
<path d="M535.465 24.4441H458.064V23.248C464.875 23.1918 470.506 23.0795 474.959 22.9111C479.499 22.7426 481.769 22.5348 481.769 22.2877C481.769 22.1867 481.682 22.0631 481.507 21.9171C481.333 21.7711 481.071 21.642 480.721 21.5296L465.267 16.1725H400.178C397.733 16.9587 395.725 17.6438 394.153 18.2278C392.669 18.8118 391.316 19.3509 390.093 19.845C388.958 20.3279 388.173 20.721 387.736 21.0243C387.3 21.3275 387.081 21.5746 387.081 21.7655C387.081 22.2147 389.831 22.5629 395.332 22.81C400.833 23.0571 407.032 23.2031 413.929 23.248V24.4441H343.994V23.248C346.264 23.2255 349.101 23.1637 352.506 23.0627C355.911 22.9504 358.705 22.8044 360.888 22.6247C364.381 22.3214 367.087 22.007 369.008 21.6813C370.929 21.3443 372.806 20.8839 374.64 20.2999C383.982 17.3012 394.284 13.9319 405.547 10.192C416.81 6.45216 426.851 3.12219 435.669 0.202156H446.147L508.093 20.8221C509.403 21.2601 510.887 21.6139 512.546 21.8834C514.205 22.153 516.519 22.4169 519.487 22.6752C521.495 22.8324 524.115 22.9672 527.345 23.0795C530.575 23.1806 533.282 23.2367 535.465 23.248V24.4441ZM460.553 14.6732L432.395 5.40768L404.762 14.6732H460.553Z" fill="black"/>
<path d="M721.959 14.8922C719.864 14.9259 717.026 14.982 713.447 15.0606C709.954 15.128 707.117 15.2291 704.934 15.3639C702.315 15.5323 700.437 15.7738 699.302 16.0883C698.255 16.3915 697.731 16.7509 697.731 17.1664V19.0195C697.731 20.3673 697.774 21.277 697.862 21.7487C698.036 22.2203 698.211 22.6078 698.386 22.9111C686.773 23.5849 675.205 24.1015 663.68 24.4609C652.155 24.8203 640.848 25 629.76 25C617.886 25 606.448 24.7136 595.447 24.1408C584.446 23.5681 574.842 22.7538 566.635 21.6981C558.34 20.6312 551.748 19.334 546.859 17.8066C541.969 16.2792 539.525 14.5721 539.525 12.6853C539.525 10.8659 541.838 9.18127 546.466 7.6314C551.181 6.07031 557.816 4.71698 566.373 3.57143C574.667 2.44834 584.533 1.57794 595.971 0.960243C607.496 0.331312 619.806 0.0168464 632.903 0.0168464C643.38 0.0168464 652.504 0.179695 660.275 0.505391C668.045 0.831087 674.899 1.22417 680.836 1.68464L686.206 0.539084H696.683L697.862 8.89488H687.123C685.289 7.97394 683.019 7.06986 680.312 6.18261C677.606 5.28414 674.113 4.48113 669.835 3.77358C665.557 3.06604 660.318 2.50449 654.119 2.08895C648.008 1.66217 640.674 1.44879 632.117 1.44879C622.775 1.44879 614.437 1.69587 607.103 2.19003C599.769 2.67296 593.395 3.39735 587.982 4.36321C582.656 5.29537 578.552 6.45777 575.671 7.8504C572.79 9.24304 571.349 10.7985 571.349 12.5168C571.349 14.033 572.746 15.465 575.54 16.8127C578.421 18.1491 582.569 19.3059 587.982 20.283C593.395 21.2826 600.162 22.0687 608.282 22.6415C616.401 23.2143 625.613 23.5007 635.915 23.5007C643.598 23.5007 650.583 23.3491 656.87 23.0458C663.243 22.7426 667.74 22.4225 670.359 22.0856C671.058 21.5016 671.407 20.9119 671.407 20.3167C671.494 19.7215 671.538 19.2161 671.538 18.8005V17.4865C671.538 17.0148 671.014 16.5993 669.966 16.2399C669.006 15.8693 666.954 15.5997 663.811 15.4313C660.93 15.2628 657.001 15.1393 652.024 15.0606C647.135 14.9708 643.293 14.9146 640.499 14.8922V13.6624H721.959V14.8922Z" fill="black"/>
<path d="M893 17.4023L889.464 24.4441H735.187V23.248C737.806 23.2255 741.299 23.1806 745.664 23.1132C750.03 23.0346 752.867 22.956 754.177 22.8774C756.971 22.7089 758.892 22.4899 759.939 22.2203C761.074 21.9508 761.642 21.6083 761.642 21.1927V4.00943C761.642 3.63881 761.162 3.31312 760.201 3.03234C759.241 2.74034 757.233 2.50449 754.177 2.3248C751.819 2.1788 748.633 2.04964 744.616 1.93733C740.687 1.82502 737.544 1.75764 735.187 1.73518V0.539084H878.987V6.30054H869.164C867.418 5.44699 863.62 4.5429 857.77 3.58827C852.008 2.62242 846.507 2.09456 841.269 2.00472C838.562 1.95979 835.332 1.9261 831.577 1.90364C827.823 1.88118 823.545 1.86995 818.743 1.86995H789.537V11.3713H810.492C817.215 11.3713 822.104 11.2927 825.16 11.1354C828.303 10.967 831.053 10.6918 833.411 10.31C835.332 9.98428 836.947 9.55189 838.257 9.0128C839.653 8.46249 840.57 7.94587 841.007 7.46294H850.829V16.8127H841.007C840.658 16.2736 839.697 15.7064 838.126 15.1112C836.641 14.5047 835.07 14.0667 833.411 13.7972C830.704 13.3592 827.605 13.0728 824.112 12.938C820.707 12.8032 816.167 12.7358 810.492 12.7358H789.537V19.9124C789.537 20.6312 789.93 21.1983 790.716 21.6139C791.502 22.0294 793.03 22.3439 795.3 22.5573C797.57 22.7707 800.669 22.9111 804.598 22.9784C808.527 23.0346 814.115 23.0627 821.362 23.0627C824.243 23.0627 828.041 23.0627 832.756 23.0627C837.471 23.0627 841.443 23.0402 844.674 22.9953C847.992 22.9504 851.397 22.8717 854.889 22.7594C858.469 22.6359 861.001 22.473 862.485 22.2709C866.501 21.7318 870.692 20.9176 875.058 19.8282C879.511 18.7275 882.348 17.9189 883.57 17.4023H893Z" fill="black"/>
<path d="M99.7588 68.0209H59.4322V65.9144C62.9804 65.8155 65.9145 65.6177 68.2344 65.321C70.5999 65.0243 71.7826 64.6584 71.7826 64.2232C71.7826 64.0452 71.7371 63.8276 71.6462 63.5705C71.5552 63.3133 71.4187 63.0859 71.2368 62.8881L63.1851 53.4531H29.2726C27.9989 54.8377 26.9526 56.0443 26.1338 57.0728C25.3605 58.1014 24.6554 59.0508 24.0185 59.9211C23.4272 60.7716 23.0178 61.4639 22.7903 61.998C22.5629 62.532 22.4491 62.9672 22.4491 63.3034C22.4491 64.0946 23.8821 64.7078 26.7479 65.143C29.6137 65.5781 32.8435 65.8352 36.4372 65.9144V68.0209H0V65.9144C1.18273 65.8748 2.66114 65.766 4.43524 65.588C6.20933 65.3902 7.665 65.1331 8.80224 64.8166C10.6218 64.2825 12.032 63.7287 13.0328 63.1551C14.0336 62.5617 15.0116 61.7507 15.9669 60.7222C20.8342 55.441 26.202 49.5071 32.0702 42.9204C37.9383 36.3338 43.1697 30.4691 47.7641 25.3264H53.2229L85.4978 61.6419C86.1801 62.4134 86.9534 63.0364 87.8177 63.5111C88.682 63.9858 89.8875 64.4507 91.4342 64.9056C92.4804 65.1825 93.8451 65.4199 95.5282 65.6177C97.2113 65.7957 98.6215 65.8946 99.7588 65.9144V68.0209ZM60.7287 50.8125L46.0582 34.4943L31.6608 50.8125H60.7287Z" fill="black"/>
<path d="M180.958 55.5003L178.911 68.0209H103.239V65.9144C104.33 65.8748 105.9 65.8056 107.947 65.7067C110.039 65.6078 111.495 65.4792 112.314 65.321C113.679 65.0638 114.657 64.688 115.248 64.1935C115.885 63.699 116.203 63.0661 116.203 62.2947V32.1504C116.203 31.4779 115.93 30.8845 115.384 30.3702C114.884 29.8559 113.861 29.4405 112.314 29.1241C111.268 28.8867 109.789 28.6592 107.879 28.4417C106.014 28.2043 104.467 28.0659 103.239 28.0263V25.9198H144.111V28.0263C142.837 28.0461 141.177 28.145 139.13 28.323C137.128 28.501 135.673 28.6592 134.763 28.7977C133.216 29.0351 132.147 29.4405 131.556 30.0142C131.01 30.5878 130.737 31.2009 130.737 31.8537V60.1288C130.737 61.4343 130.874 62.4529 131.147 63.1848C131.465 63.8968 132.17 64.4507 133.262 64.8463C134.308 65.2023 135.855 65.4397 137.902 65.5583C139.994 65.6572 142.906 65.7067 146.636 65.7067C148.319 65.7067 150.07 65.6869 151.89 65.6473C153.709 65.6078 155.438 65.5287 157.076 65.41C158.668 65.2913 160.123 65.1331 161.443 64.9353C162.807 64.7177 163.808 64.4507 164.445 64.1342C166.31 63.2243 168.471 61.8496 170.927 60.0101C173.429 58.1508 175.158 56.6476 176.113 55.5003H180.958Z" fill="black"/>
<path d="M266.251 37.3425H261.543C261.133 36.6305 260.383 35.7898 259.291 34.8206C258.245 33.8316 257.062 32.902 255.743 32.0317C254.378 31.1218 252.877 30.3306 251.239 29.6581C249.647 28.9658 248.1 28.5702 246.599 28.4713C245.189 28.3922 243.415 28.3329 241.277 28.2933C239.139 28.2538 237.16 28.234 235.341 28.234H231.383V61.909C231.383 62.5617 231.701 63.165 232.338 63.7188C232.975 64.2529 234.09 64.6682 235.682 64.9649C236.501 65.1034 238.206 65.2913 240.799 65.5287C243.438 65.766 245.485 65.8946 246.94 65.9144V68.0209H201.223V65.9144C202.497 65.8748 204.43 65.7957 207.023 65.677C209.662 65.5583 211.481 65.41 212.482 65.232C213.983 64.9748 215.075 64.6089 215.757 64.1342C216.485 63.6397 216.849 62.987 216.849 62.176V28.234H212.891C211.481 28.234 209.73 28.2538 207.637 28.2933C205.545 28.3131 203.543 28.3724 201.633 28.4713C200.132 28.5505 198.562 28.9461 196.925 29.6581C195.332 30.3504 193.854 31.1416 192.489 32.0317C191.125 32.9218 189.919 33.8712 188.873 34.88C187.827 35.869 187.099 36.6898 186.689 37.3425H181.913V25.9198H266.251V37.3425Z" fill="black"/>
<path d="M355.501 55.619L353.659 68.0209H273.279V65.9144C274.644 65.8748 276.463 65.7957 278.738 65.677C281.012 65.5385 282.491 65.4001 283.173 65.2616C284.629 64.9649 285.629 64.5792 286.175 64.1045C286.767 63.6298 287.062 63.0265 287.062 62.2947V32.0317C287.062 31.379 286.812 30.8053 286.312 30.3109C285.811 29.7966 284.765 29.3812 283.173 29.0647C281.945 28.8076 280.284 28.5801 278.192 28.3823C276.145 28.1845 274.507 28.0659 273.279 28.0263V25.9198H348.2V36.0668H343.083C342.173 34.5635 340.194 32.9712 337.146 31.29C334.144 29.5889 331.278 28.6592 328.549 28.501C327.139 28.4219 325.456 28.3626 323.499 28.323C321.543 28.2834 319.314 28.2637 316.813 28.2637H301.596V44.9973H312.514C316.016 44.9973 318.564 44.8588 320.156 44.5819C321.794 44.2852 323.227 43.8006 324.455 43.1281C325.456 42.5545 326.297 41.793 326.979 40.8436C327.707 39.8744 328.185 38.9645 328.412 38.114H333.53V54.5806H328.412C328.23 53.6312 327.73 52.6323 326.911 51.584C326.138 50.5158 325.319 49.7444 324.455 49.2697C323.045 48.4983 321.43 47.9939 319.61 47.7566C317.836 47.5192 315.471 47.4005 312.514 47.4005H301.596V60.0398C301.596 61.3057 301.801 62.3046 302.21 63.0364C302.62 63.7683 303.416 64.3221 304.599 64.6979C305.781 65.0737 307.396 65.321 309.443 65.4397C311.49 65.5385 314.402 65.588 318.177 65.588C319.678 65.588 321.657 65.588 324.114 65.588C326.57 65.588 328.64 65.5484 330.323 65.4693C332.052 65.3902 333.826 65.2517 335.645 65.0539C337.51 64.8364 338.829 64.5496 339.603 64.1935C341.695 63.2441 343.879 61.8101 346.153 59.8914C348.473 57.953 349.952 56.5289 350.589 55.619H355.501Z" fill="black"/>
<path d="M459.695 68.0209H433.63C427.853 64.0847 422.621 60.6826 417.936 57.8146C413.296 54.9465 408.247 51.9894 402.788 48.9434H392.894V62.2947C392.894 62.987 393.144 63.6001 393.644 64.1342C394.145 64.6485 395.214 65.0441 396.852 65.321C397.67 65.4594 399.103 65.588 401.15 65.7067C403.197 65.8254 404.926 65.8946 406.336 65.9144V68.0209H365.395V65.9144C366.487 65.8748 368.057 65.8056 370.104 65.7067C372.196 65.6078 373.652 65.4792 374.471 65.321C375.835 65.0638 376.813 64.688 377.405 64.1935C378.042 63.699 378.36 63.0661 378.36 62.2947V31.8537C378.36 31.1614 378.133 30.5482 377.678 30.0142C377.223 29.4801 376.154 29.0746 374.471 28.7977C373.333 28.6197 371.855 28.4615 370.035 28.323C368.216 28.1648 366.669 28.0659 365.395 28.0263V25.9198H410.089C414.183 25.9198 418.027 26.1077 421.621 26.4835C425.214 26.8395 428.467 27.423 431.378 28.234C434.198 29.0252 436.45 30.0636 438.133 31.3493C439.816 32.6152 440.658 34.1481 440.658 35.9481C440.658 37.57 440.089 39.004 438.952 40.2502C437.815 41.4963 436.132 42.5743 433.903 43.4842C431.856 44.3347 429.399 45.0764 426.533 45.7094C423.668 46.3225 420.506 46.8467 417.049 47.2819C421.825 50.0312 425.783 52.3455 428.922 54.2245C432.106 56.1036 435.995 58.3882 440.59 61.0782C442.591 62.265 444.388 63.1452 445.98 63.7188C447.618 64.2726 449.233 64.7276 450.825 65.0836C452.008 65.3408 453.486 65.5385 455.26 65.677C457.034 65.8155 458.513 65.8946 459.695 65.9144V68.0209ZM423.804 36.6305C423.804 34.0789 422.121 32.0614 418.755 30.5779C415.389 29.0746 410.635 28.323 404.494 28.323H392.894V46.3918H401.833C408.11 46.3918 413.342 45.5215 417.527 43.7809C421.712 42.0205 423.804 39.637 423.804 36.6305Z" fill="black"/>
<path d="M562.866 28.0263C561.592 28.0461 559.636 28.2043 556.998 28.501C554.359 28.7977 552.472 29.1043 551.334 29.4208C549.697 29.9153 548.582 30.8647 547.991 32.269C547.445 33.6734 547.172 35.4536 547.172 37.6096V68.4363H541.236L482.554 33.9899V55.708C482.554 58.1409 482.895 60.0101 483.577 61.3156C484.305 62.621 485.397 63.5507 486.853 64.1045C487.899 64.5397 490.06 64.9452 493.335 65.321C496.61 65.6968 498.771 65.8946 499.817 65.9144V68.0209H460.105V65.9144C461.333 65.8748 463.403 65.6869 466.314 65.3506C469.226 64.9946 471.045 64.6781 471.773 64.4012C473.365 63.8474 474.457 63.0067 475.048 61.8793C475.64 60.7321 475.935 58.7838 475.935 56.0344V35.2953C475.935 34.3855 475.571 33.4756 474.843 32.5657C474.116 31.6559 473.138 30.9537 471.909 30.4592C470.272 29.8065 468.043 29.2526 465.222 28.7977C462.448 28.323 460.196 28.0659 458.467 28.0263V25.9198H486.102L540.553 58.0223V37.9953C540.553 35.5426 540.189 33.6635 539.461 32.3581C538.734 31.0328 537.687 30.1526 536.323 29.7175C535.049 29.3416 532.956 28.9757 530.045 28.6197C527.179 28.2637 524.996 28.0659 523.495 28.0263V25.9198H562.866V28.0263Z" fill="black"/>
<path d="M661.055 68.0209H620.729V65.9144C624.277 65.8155 627.211 65.6177 629.531 65.321C631.896 65.0243 633.079 64.6584 633.079 64.2232C633.079 64.0452 633.034 63.8276 632.943 63.5705C632.852 63.3133 632.715 63.0859 632.533 62.8881L624.482 53.4531H590.569C589.295 54.8377 588.249 56.0443 587.43 57.0728C586.657 58.1014 585.952 59.0508 585.315 59.9211C584.724 60.7716 584.314 61.4639 584.087 61.998C583.859 62.532 583.746 62.9672 583.746 63.3034C583.746 64.0946 585.179 64.7078 588.044 65.143C590.91 65.5781 594.14 65.8352 597.734 65.9144V68.0209H561.297V65.9144C562.479 65.8748 563.958 65.766 565.732 65.588C567.506 65.3902 568.962 65.1331 570.099 64.8166C571.918 64.2825 573.329 63.7287 574.329 63.1551C575.33 62.5617 576.308 61.7507 577.263 60.7222C582.131 55.441 587.499 49.5071 593.367 42.9204C599.235 36.3338 604.466 30.4691 609.061 25.3264H614.519L646.794 61.6419C647.477 62.4134 648.25 63.0364 649.114 63.5111C649.979 63.9858 651.184 64.4507 652.731 64.9056C653.777 65.1825 655.142 65.4199 656.825 65.6177C658.508 65.7957 659.918 65.8946 661.055 65.9144V68.0209ZM622.025 50.8125L607.355 34.4943L592.957 50.8125H622.025Z" fill="black"/>
<path d="M763.885 28.0263C762.611 28.0461 760.655 28.2043 758.016 28.501C755.378 28.7977 753.49 29.1043 752.353 29.4208C750.715 29.9153 749.601 30.8647 749.009 32.269C748.464 33.6734 748.191 35.4536 748.191 37.6096V68.4363H742.254L683.573 33.9899V55.708C683.573 58.1409 683.914 60.0101 684.596 61.3156C685.324 62.621 686.416 63.5507 687.871 64.1045C688.918 64.5397 691.078 64.9452 694.354 65.321C697.629 65.6968 699.79 65.8946 700.836 65.9144V68.0209H661.124V65.9144C662.352 65.8748 664.422 65.6869 667.333 65.3506C670.244 64.9946 672.064 64.6781 672.792 64.4012C674.384 63.8474 675.475 63.0067 676.067 61.8793C676.658 60.7321 676.954 58.7838 676.954 56.0344V35.2953C676.954 34.3855 676.59 33.4756 675.862 32.5657C675.134 31.6559 674.156 30.9537 672.928 30.4592C671.29 29.8065 669.061 29.2526 666.241 28.7977C663.466 28.323 661.214 28.0659 659.486 28.0263V25.9198H687.121L741.572 58.0223V37.9953C741.572 35.5426 741.208 33.6635 740.48 32.3581C739.752 31.0328 738.706 30.1526 737.341 29.7175C736.068 29.3416 733.975 28.9757 731.064 28.6197C728.198 28.2637 726.014 28.0659 724.513 28.0263V25.9198H763.885V28.0263Z" fill="black"/>
<path d="M814.446 69C808.669 69 803.119 68.5055 797.797 67.5165C792.52 66.5275 787.835 65.1034 783.741 63.2441C779.692 61.3848 776.462 59.12 774.052 56.4498C771.641 53.7597 770.435 50.7334 770.435 47.3709C770.435 44.0083 771.618 40.9622 773.983 38.2326C776.349 35.4833 779.624 33.1196 783.809 31.1416C787.949 29.1834 792.839 27.6703 798.479 26.6022C804.12 25.5341 810.148 25 816.562 25C821.338 25 825.659 25.2571 829.526 25.7714C833.393 26.2857 837.077 27.0076 840.58 27.9373L843.378 25.9198H848.836L849.451 40.9326H843.855C843.128 39.4689 842.036 37.8865 840.58 36.1854C839.124 34.4646 837.419 33.0108 835.463 31.824C833.279 30.479 830.686 29.4307 827.684 28.679C824.681 27.9076 821.247 27.5219 817.38 27.5219C812.968 27.5219 808.851 27.9472 805.03 28.7977C801.254 29.6482 797.979 30.9042 795.204 32.5657C792.566 34.1679 790.496 36.2052 788.995 38.6777C787.494 41.1501 786.743 43.9094 786.743 46.9555C786.743 49.6455 787.516 52.118 789.063 54.3729C790.655 56.608 792.907 58.5761 795.818 60.2771C798.73 61.9584 802.164 63.2738 806.122 64.2232C810.125 65.1726 814.583 65.6473 819.496 65.6473C823.18 65.6473 826.569 65.4001 829.663 64.9056C832.756 64.3913 835.44 63.7188 837.714 62.8881C839.989 62.0178 841.99 61.0288 843.719 59.9211C845.447 58.8134 846.858 57.6069 847.949 56.3014L853.067 57.3695C849.155 61.543 843.969 64.5298 837.51 66.3297C831.05 68.1099 823.362 69 814.446 69Z" fill="black"/>
<path d="M943 55.619L941.158 68.0209H860.777V65.9144C862.142 65.8748 863.962 65.7957 866.236 65.677C868.511 65.5385 869.989 65.4001 870.671 65.2616C872.127 64.9649 873.128 64.5792 873.674 64.1045C874.265 63.6298 874.561 63.0265 874.561 62.2947V32.0317C874.561 31.379 874.311 30.8053 873.81 30.3109C873.31 29.7966 872.264 29.3812 870.671 29.0647C869.443 28.8076 867.783 28.5801 865.69 28.3823C863.643 28.1845 862.006 28.0659 860.777 28.0263V25.9198H935.699V36.0668H930.581C929.672 34.5635 927.693 32.9712 924.645 31.29C921.643 29.5889 918.777 28.6592 916.047 28.501C914.637 28.4219 912.954 28.3626 910.998 28.323C909.042 28.2834 906.813 28.2637 904.311 28.2637H889.095V44.9973H900.012C903.515 44.9973 906.062 44.8588 907.655 44.5819C909.292 44.2852 910.725 43.8006 911.953 43.1281C912.954 42.5545 913.796 41.793 914.478 40.8436C915.206 39.8744 915.683 38.9645 915.911 38.114H921.028V54.5806H915.911C915.729 53.6312 915.229 52.6323 914.41 51.584C913.636 50.5158 912.818 49.7444 911.953 49.2697C910.543 48.4983 908.928 47.9939 907.109 47.7566C905.335 47.5192 902.969 47.4005 900.012 47.4005H889.095V60.0398C889.095 61.3057 889.299 62.3046 889.709 63.0364C890.118 63.7683 890.914 64.3221 892.097 64.6979C893.28 65.0737 894.895 65.321 896.942 65.4397C898.989 65.5385 901.9 65.588 905.676 65.588C907.177 65.588 909.156 65.588 911.612 65.588C914.069 65.588 916.138 65.5484 917.821 65.4693C919.55 65.3902 921.324 65.2517 923.144 65.0539C925.009 64.8364 926.328 64.5496 927.101 64.1935C929.194 63.2441 931.377 61.8101 933.652 59.8914C935.972 57.953 937.45 56.5289 938.087 55.619H943Z" fill="black"/>
</svg>
