<svg width="943" height="44" viewBox="0 0 943 44" fill="none" xmlns="http://www.w3.org/2000/svg">
<path d="M99.7588 43.0209H59.4322V40.9144C62.9804 40.8155 65.9145 40.6177 68.2344 40.321C70.5999 40.0243 71.7826 39.6584 71.7826 39.2232C71.7826 39.0452 71.7371 38.8276 71.6462 38.5705C71.5552 38.3133 71.4187 38.0859 71.2368 37.8881L63.1851 28.4531H29.2726C27.9989 29.8377 26.9526 31.0443 26.1338 32.0728C25.3605 33.1014 24.6554 34.0508 24.0185 34.9211C23.4272 35.7716 23.0178 36.4639 22.7903 36.998C22.5629 37.532 22.4491 37.9672 22.4491 38.3034C22.4491 39.0946 23.8821 39.7078 26.7479 40.143C29.6137 40.5781 32.8435 40.8352 36.4372 40.9144V43.0209H0V40.9144C1.18273 40.8748 2.66114 40.766 4.43524 40.588C6.20933 40.3902 7.665 40.1331 8.80224 39.8166C10.6218 39.2825 12.032 38.7287 13.0328 38.1551C14.0336 37.5617 15.0116 36.7507 15.9669 35.7222C20.8342 30.441 26.202 24.5071 32.0702 17.9204C37.9384 11.3338 43.1697 5.46909 47.7641 0.326365H53.2229L85.4978 36.6419C86.1801 37.4134 86.9534 38.0364 87.8177 38.5111C88.682 38.9858 89.8875 39.4507 91.4342 39.9056C92.4804 40.1825 93.8451 40.4199 95.5282 40.6177C97.2113 40.7957 98.6215 40.8946 99.7588 40.9144V43.0209ZM60.7287 25.8125L46.0582 9.49427L31.6608 25.8125H60.7287Z" fill="black"/>
<path d="M180.958 30.5003L178.911 43.0209H103.239V40.9144C104.33 40.8748 105.9 40.8056 107.947 40.7067C110.039 40.6078 111.495 40.4792 112.314 40.321C113.679 40.0638 114.657 39.688 115.248 39.1935C115.885 38.699 116.203 38.0661 116.203 37.2947V7.15037C116.203 6.47786 115.93 5.88447 115.384 5.3702C114.884 4.85592 113.861 4.44055 112.314 4.12407C111.268 3.88672 109.789 3.65925 107.879 3.44167C106.014 3.20432 104.467 3.06586 103.239 3.0263V0.919757H144.111V3.0263C142.837 3.04608 141.177 3.14498 139.13 3.32299C137.128 3.50101 135.673 3.65925 134.763 3.79771C133.216 4.03506 132.147 4.44055 131.556 5.01416C131.01 5.58777 130.737 6.20094 130.737 6.85368V35.1288C130.737 36.4343 130.874 37.4529 131.147 38.1848C131.465 38.8968 132.17 39.4507 133.262 39.8463C134.308 40.2023 135.855 40.4397 137.902 40.5583C139.994 40.6572 142.906 40.7067 146.636 40.7067C148.319 40.7067 150.07 40.6869 151.89 40.6473C153.709 40.6078 155.438 40.5287 157.076 40.41C158.668 40.2913 160.123 40.1331 161.443 39.9353C162.807 39.7177 163.808 39.4507 164.445 39.1342C166.31 38.2243 168.471 36.8496 170.927 35.0101C173.429 33.1508 175.158 31.6476 176.113 30.5003H180.958Z" fill="black"/>
<path d="M266.251 12.3425H261.543C261.133 11.6305 260.383 10.7898 259.291 9.82063C258.245 8.83165 257.062 7.902 255.743 7.03169C254.378 6.12183 252.877 5.33064 251.239 4.65813C249.647 3.96584 248.1 3.57024 246.599 3.47134C245.189 3.39222 243.415 3.33288 241.277 3.29332C239.139 3.25376 237.16 3.23399 235.341 3.23399H231.383V36.909C231.383 37.5617 231.701 38.165 232.338 38.7188C232.975 39.2529 234.09 39.6682 235.682 39.9649C236.501 40.1034 238.206 40.2913 240.799 40.5287C243.438 40.766 245.485 40.8946 246.94 40.9144V43.0209H201.223V40.9144C202.497 40.8748 204.43 40.7957 207.023 40.677C209.662 40.5583 211.481 40.41 212.482 40.232C213.983 39.9748 215.075 39.6089 215.757 39.1342C216.485 38.6397 216.849 37.987 216.849 37.176V3.23399H212.891C211.481 3.23399 209.73 3.25376 207.637 3.29332C205.545 3.3131 203.543 3.37244 201.633 3.47134C200.132 3.55046 198.562 3.94606 196.925 4.65813C195.332 5.35042 193.854 6.1416 192.489 7.03169C191.125 7.92178 189.919 8.87121 188.873 9.87997C187.827 10.869 187.099 11.6898 186.689 12.3425H181.913V0.919757H266.251V12.3425Z" fill="black"/>
<path d="M355.501 30.619L353.659 43.0209H273.279V40.9144C274.644 40.8748 276.463 40.7957 278.738 40.677C281.012 40.5385 282.491 40.4001 283.173 40.2616C284.629 39.9649 285.629 39.5792 286.175 39.1045C286.767 38.6298 287.062 38.0265 287.062 37.2947V7.03169C287.062 6.37896 286.812 5.80535 286.312 5.31086C285.811 4.79658 284.765 4.38121 283.173 4.06473C281.945 3.8076 280.284 3.58013 278.192 3.38233C276.145 3.18454 274.507 3.06586 273.279 3.0263V0.919757H348.2V11.0668H343.083C342.173 9.5635 340.194 7.97123 337.146 6.28995C334.144 4.5889 331.278 3.65925 328.549 3.50101C327.139 3.42189 325.456 3.36255 323.499 3.32299C321.543 3.28343 319.314 3.26365 316.812 3.26365H301.596V19.9973H312.514C316.016 19.9973 318.564 19.8588 320.156 19.5819C321.794 19.2852 323.227 18.8006 324.455 18.1281C325.456 17.5545 326.297 16.793 326.979 15.8436C327.707 14.8744 328.185 13.9645 328.412 13.114H333.53V29.5806H328.412C328.23 28.6312 327.73 27.6323 326.911 26.584C326.138 25.5158 325.319 24.7444 324.455 24.2697C323.045 23.4983 321.43 22.9939 319.61 22.7566C317.836 22.5192 315.471 22.4005 312.514 22.4005H301.596V35.0398C301.596 36.3057 301.801 37.3046 302.21 38.0364C302.62 38.7683 303.416 39.3221 304.599 39.6979C305.781 40.0737 307.396 40.321 309.443 40.4397C311.49 40.5385 314.402 40.588 318.177 40.588C319.678 40.588 321.657 40.588 324.114 40.588C326.57 40.588 328.64 40.5484 330.323 40.4693C332.052 40.3902 333.826 40.2517 335.645 40.0539C337.51 39.8364 338.829 39.5496 339.603 39.1935C341.695 38.2441 343.879 36.8101 346.153 34.8914C348.473 32.953 349.952 31.5289 350.589 30.619H355.501Z" fill="black"/>
<path d="M459.695 43.0209H433.63C427.853 39.0847 422.621 35.6826 417.936 32.8146C413.296 29.9465 408.247 26.9894 402.788 23.9434H392.894V37.2947C392.894 37.987 393.144 38.6001 393.645 39.1342C394.145 39.6485 395.214 40.0441 396.852 40.321C397.67 40.4594 399.103 40.588 401.15 40.7067C403.197 40.8254 404.926 40.8946 406.336 40.9144V43.0209H365.395V40.9144C366.487 40.8748 368.057 40.8056 370.104 40.7067C372.196 40.6078 373.652 40.4792 374.471 40.321C375.835 40.0638 376.813 39.688 377.405 39.1935C378.042 38.699 378.36 38.0661 378.36 37.2947V6.85368C378.36 6.16138 378.133 5.54821 377.678 5.01416C377.223 4.48011 376.154 4.07462 374.471 3.79771C373.333 3.61969 371.855 3.46145 370.035 3.32299C368.216 3.16476 366.669 3.06586 365.395 3.0263V0.919757H410.089C414.183 0.919757 418.027 1.10766 421.621 1.48348C425.214 1.83951 428.467 2.42302 431.378 3.23399C434.198 4.02517 436.45 5.06361 438.133 6.34929C439.816 7.61519 440.658 9.14812 440.658 10.9481C440.658 12.57 440.089 14.004 438.952 15.2502C437.815 16.4963 436.132 17.5743 433.903 18.4842C431.856 19.3347 429.399 20.0764 426.534 20.7094C423.668 21.3225 420.506 21.8467 417.049 22.2819C421.825 25.0312 425.783 27.3455 428.922 29.2245C432.106 31.1036 435.995 33.3882 440.59 36.0782C442.591 37.265 444.388 38.1452 445.98 38.7188C447.618 39.2726 449.233 39.7276 450.825 40.0836C452.008 40.3408 453.486 40.5385 455.26 40.677C457.034 40.8155 458.513 40.8946 459.695 40.9144V43.0209ZM423.804 11.6305C423.804 9.07889 422.121 7.06136 418.755 5.57788C415.389 4.07462 410.635 3.32299 404.494 3.32299H392.894V21.3918H401.833C408.11 21.3918 413.341 20.5215 417.527 18.7808C421.712 17.0205 423.804 14.637 423.804 11.6305Z" fill="black"/>
<path d="M562.866 3.0263C561.592 3.04608 559.636 3.20432 556.998 3.50101C554.359 3.79771 552.472 4.10429 551.334 4.42077C549.697 4.91526 548.582 5.86469 547.991 7.26905C547.445 8.67341 547.172 10.4536 547.172 12.6096V43.4363H541.236L482.554 8.98989V30.708C482.554 33.1409 482.895 35.0101 483.577 36.3156C484.305 37.621 485.397 38.5507 486.853 39.1045C487.899 39.5397 490.06 39.9452 493.335 40.321C496.61 40.6968 498.771 40.8946 499.817 40.9144V43.0209H460.105V40.9144C461.333 40.8748 463.403 40.6869 466.314 40.3506C469.226 39.9946 471.045 39.6781 471.773 39.4012C473.365 38.8474 474.457 38.0067 475.048 36.8793C475.64 35.7321 475.935 33.7838 475.935 31.0344V10.2953C475.935 9.38548 475.571 8.47561 474.843 7.56575C474.116 6.65588 473.138 5.9537 471.909 5.4592C470.272 4.80647 468.043 4.25264 465.222 3.79771C462.448 3.32299 460.196 3.06586 458.467 3.0263V0.919757H486.102L540.553 33.0223V12.9953C540.553 10.5426 540.189 8.66352 539.461 7.35806C538.734 6.03282 537.687 5.15262 536.323 4.71746C535.049 4.34165 532.956 3.97572 530.045 3.61969C527.179 3.26365 524.996 3.06586 523.495 3.0263V0.919757H562.866V3.0263Z" fill="black"/>
<path d="M661.055 43.0209H620.729V40.9144C624.277 40.8155 627.211 40.6177 629.531 40.321C631.896 40.0243 633.079 39.6584 633.079 39.2232C633.079 39.0452 633.034 38.8276 632.943 38.5705C632.852 38.3133 632.715 38.0859 632.533 37.8881L624.482 28.4531H590.569C589.295 29.8377 588.249 31.0443 587.43 32.0728C586.657 33.1014 585.952 34.0508 585.315 34.9211C584.724 35.7716 584.314 36.4639 584.087 36.998C583.859 37.532 583.746 37.9672 583.746 38.3034C583.746 39.0946 585.179 39.7078 588.044 40.143C590.91 40.5781 594.14 40.8352 597.734 40.9144V43.0209H561.297V40.9144C562.479 40.8748 563.958 40.766 565.732 40.588C567.506 40.3902 568.962 40.1331 570.099 39.8166C571.918 39.2825 573.329 38.7287 574.329 38.1551C575.33 37.5617 576.308 36.7507 577.263 35.7222C582.131 30.441 587.499 24.5071 593.367 17.9204C599.235 11.3338 604.466 5.46909 609.061 0.326365H614.519L646.794 36.6419C647.477 37.4134 648.25 38.0364 649.114 38.5111C649.979 38.9858 651.184 39.4507 652.731 39.9056C653.777 40.1825 655.142 40.4199 656.825 40.6177C658.508 40.7957 659.918 40.8946 661.055 40.9144V43.0209ZM622.025 25.8125L607.355 9.49427L592.957 25.8125H622.025Z" fill="black"/>
<path d="M763.885 3.0263C762.611 3.04608 760.655 3.20432 758.016 3.50101C755.378 3.79771 753.49 4.10429 752.353 4.42077C750.715 4.91526 749.601 5.86469 749.009 7.26905C748.464 8.67341 748.191 10.4536 748.191 12.6096V43.4363H742.254L683.573 8.98989V30.708C683.573 33.1409 683.914 35.0101 684.596 36.3156C685.324 37.621 686.416 38.5507 687.871 39.1045C688.918 39.5397 691.078 39.9452 694.354 40.321C697.629 40.6968 699.79 40.8946 700.836 40.9144V43.0209H661.123V40.9144C662.352 40.8748 664.422 40.6869 667.333 40.3506C670.244 39.9946 672.064 39.6781 672.792 39.4012C674.384 38.8474 675.475 38.0067 676.067 36.8793C676.658 35.7321 676.954 33.7838 676.954 31.0344V10.2953C676.954 9.38548 676.59 8.47561 675.862 7.56575C675.134 6.65588 674.156 5.9537 672.928 5.4592C671.29 4.80647 669.061 4.25264 666.241 3.79771C663.466 3.32299 661.214 3.06586 659.486 3.0263V0.919757H687.121L741.572 33.0223V12.9953C741.572 10.5426 741.208 8.66352 740.48 7.35806C739.752 6.03282 738.706 5.15262 737.341 4.71746C736.068 4.34165 733.975 3.97572 731.064 3.61969C728.198 3.26365 726.014 3.06586 724.513 3.0263V0.919757H763.885V3.0263Z" fill="black"/>
<path d="M814.446 44C808.669 44 803.119 43.5055 797.797 42.5165C792.52 41.5275 787.835 40.1034 783.741 38.2441C779.692 36.3848 776.462 34.12 774.052 31.4498C771.641 28.7597 770.435 25.7334 770.435 22.3709C770.435 19.0083 771.618 15.9622 773.983 13.2326C776.349 10.4833 779.624 8.11958 783.809 6.1416C787.949 4.18341 792.839 2.67026 798.479 1.60216C804.12 0.534053 810.148 0 816.562 0C821.338 0 825.659 0.257136 829.526 0.771409C833.393 1.28568 837.077 2.00764 840.58 2.93729L843.378 0.919757H848.836L849.451 15.9326H843.855C843.128 14.4689 842.036 12.8865 840.58 11.1854C839.124 9.4646 837.419 8.01079 835.463 6.82401C833.279 5.47898 830.686 4.43066 827.684 3.67903C824.681 2.90762 821.247 2.52192 817.38 2.52192C812.968 2.52192 808.851 2.94718 805.03 3.79771C801.254 4.64824 797.979 5.90425 795.204 7.56575C792.566 9.1679 790.496 11.2052 788.995 13.6777C787.494 16.1501 786.743 18.9094 786.743 21.9555C786.743 24.6455 787.516 27.118 789.063 29.3729C790.655 31.608 792.907 33.5761 795.818 35.2771C798.73 36.9584 802.164 38.2738 806.122 39.2232C810.125 40.1726 814.583 40.6473 819.496 40.6473C823.18 40.6473 826.569 40.4001 829.663 39.9056C832.756 39.3913 835.44 38.7188 837.714 37.8881C839.989 37.0178 841.99 36.0288 843.719 34.9211C845.447 33.8134 846.858 32.6069 847.949 31.3014L853.067 32.3695C849.155 36.543 843.969 39.5298 837.51 41.3297C831.05 43.1099 823.362 44 814.446 44Z" fill="black"/>
<path d="M943 30.619L941.158 43.0209H860.777V40.9144C862.142 40.8748 863.962 40.7957 866.236 40.677C868.511 40.5385 869.989 40.4001 870.671 40.2616C872.127 39.9649 873.128 39.5792 873.674 39.1045C874.265 38.6298 874.561 38.0265 874.561 37.2947V7.03169C874.561 6.37896 874.311 5.80535 873.81 5.31086C873.31 4.79658 872.264 4.38121 870.671 4.06473C869.443 3.8076 867.783 3.58013 865.69 3.38233C863.643 3.18454 862.006 3.06586 860.777 3.0263V0.919757H935.699V11.0668H930.581C929.672 9.5635 927.693 7.97123 924.645 6.28995C921.643 4.5889 918.777 3.65925 916.047 3.50101C914.637 3.42189 912.954 3.36255 910.998 3.32299C909.042 3.28343 906.813 3.26365 904.311 3.26365H889.095V19.9973H900.012C903.515 19.9973 906.062 19.8588 907.655 19.5819C909.292 19.2852 910.725 18.8006 911.953 18.1281C912.954 17.5545 913.796 16.793 914.478 15.8436C915.206 14.8744 915.683 13.9645 915.911 13.114H921.029V29.5806H915.911C915.729 28.6312 915.229 27.6323 914.41 26.584C913.636 25.5158 912.818 24.7444 911.953 24.2697C910.543 23.4983 908.928 22.9939 907.109 22.7566C905.335 22.5192 902.969 22.4005 900.012 22.4005H889.095V35.0398C889.095 36.3057 889.299 37.3046 889.709 38.0364C890.118 38.7683 890.914 39.3221 892.097 39.6979C893.28 40.0737 894.895 40.321 896.942 40.4397C898.989 40.5385 901.9 40.588 905.676 40.588C907.177 40.588 909.156 40.588 911.612 40.588C914.069 40.588 916.138 40.5484 917.821 40.4693C919.55 40.3902 921.324 40.2517 923.144 40.0539C925.009 39.8364 926.328 39.5496 927.101 39.1935C929.194 38.2441 931.377 36.8101 933.652 34.8914C935.972 32.953 937.45 31.5289 938.087 30.619H943Z" fill="black"/>
</svg>
