<svg width="69" height="28" viewBox="0 0 69 28" fill="none" xmlns="http://www.w3.org/2000/svg">
<path d="M34.2579 0C29.7591 0 25.3043 0.364692 21.148 1.07325C16.9916 1.78182 13.215 2.82037 10.0339 4.12962C3.6093 6.77378 0 10.36 0 14.0994C0 20.3314 9.83202 25.6186 23.4324 27.4939C25.1453 27.6067 25.6934 27.1696 25.6934 26.7889V24.4061C16.204 25.2521 14.1828 22.5168 14.1828 22.5168C12.6069 20.8812 10.3801 20.4442 10.3801 20.4442C7.26268 19.57 10.6199 19.5982 10.6199 19.5982C14.0457 19.6969 15.8614 21.0504 15.8614 21.0504C18.8418 23.1935 23.8778 22.5591 25.8305 22.2207C26.1388 21.3042 27.0295 20.6838 27.9887 20.3314C20.3835 19.9789 12.4014 18.7663 12.4014 13.3944C12.4014 11.8294 13.7032 10.5746 15.9299 9.5735C15.5873 9.22102 14.3883 7.75468 16.2725 5.85126C16.2725 5.85126 19.1502 5.47057 25.6934 7.2894C28.3998 6.97921 31.346 6.82412 34.2579 6.82412C37.1698 6.82412 40.116 6.97921 42.8224 7.2894C49.3656 5.47057 52.2433 5.85126 52.2433 5.85126C54.1275 7.75468 52.9285 9.22102 52.5859 9.5735C54.8126 10.5746 56.1144 11.8294 56.1144 13.3944C56.1144 18.7804 48.0981 19.9648 40.4586 20.3173C41.6919 20.7543 42.8224 21.6144 42.8224 22.9257V26.7889C42.8224 27.1696 43.3705 27.6208 45.1177 27.4939C58.718 25.6045 68.5158 20.3314 68.5158 14.0994C68.5158 12.2479 67.6297 10.4144 65.9081 8.7038C64.1865 6.99318 61.663 5.43888 58.4819 4.12962C55.3008 2.82037 51.5242 1.78182 47.3678 1.07325C43.2115 0.364692 38.7567 0 34.2579 0Z" fill="black"/>
</svg>
