<svg width="69" height="34" viewBox="0 0 69 34" fill="none" xmlns="http://www.w3.org/2000/svg">
<path d="M34.2579 0C29.7591 0 25.3043 0.442841 21.148 1.30324C16.9916 2.16363 13.215 3.42474 10.0339 5.01454C3.6093 8.2253 0 12.58 0 17.1207C0 24.6881 9.83202 31.1084 23.4324 33.3854C25.1453 33.5224 25.6934 32.9916 25.6934 32.5294V29.636C16.204 30.6632 14.1828 27.3418 14.1828 27.3418C12.6069 25.3558 10.3801 24.825 10.3801 24.825C7.26268 23.7636 10.6199 23.7978 10.6199 23.7978C14.0457 23.9176 15.8614 25.5612 15.8614 25.5612C18.8418 28.1636 23.8778 27.3932 25.8305 26.9823C26.1388 25.8694 27.0295 25.1161 27.9887 24.6881C20.3835 24.2601 12.4014 22.7877 12.4014 16.2647C12.4014 14.3643 13.7032 12.8405 15.9299 11.625C15.5873 11.197 14.3883 9.4164 16.2725 7.1051C16.2725 7.1051 19.1502 6.64284 25.6934 8.85141C28.3998 8.47476 31.346 8.28643 34.2579 8.28643C37.1698 8.28643 40.116 8.47476 42.8224 8.85141C49.3656 6.64284 52.2433 7.1051 52.2433 7.1051C54.1275 9.4164 52.9285 11.197 52.5859 11.625C54.8126 12.8405 56.1144 14.3643 56.1144 16.2647C56.1144 22.8048 48.0981 24.2429 40.4586 24.671C41.6919 25.2017 42.8224 26.2461 42.8224 27.8383V32.5294C42.8224 32.9916 43.3705 33.5395 45.1177 33.3854C58.718 31.0912 68.5158 24.6881 68.5158 17.1207C68.5158 14.8724 67.6297 12.6461 65.9081 10.5689C64.1865 8.49172 61.663 6.60435 58.4819 5.01454C55.3008 3.42474 51.5242 2.16363 47.3678 1.30324C43.2115 0.442841 38.7567 0 34.2579 0Z" fill="black"/>
</svg>
