<svg width="19" height="22" viewBox="0 0 19 22" fill="none" xmlns="http://www.w3.org/2000/svg">
<path d="M7.00325 2.43779H11.0033C11.5533 2.43779 12.0033 1.98779 12.0033 1.43779C12.0033 0.887789 11.5533 0.437789 11.0033 0.437789H7.00325C6.45325 0.437789 6.00325 0.887789 6.00325 1.43779C6.00325 1.98779 6.45325 2.43779 7.00325 2.43779ZM16.0333 6.82779L16.7833 6.07779C16.9682 5.89174 17.0719 5.64009 17.0719 5.37779C17.0719 5.11548 16.9682 4.86383 16.7833 4.67779L16.7733 4.66779C16.5872 4.48288 16.3356 4.3791 16.0733 4.3791C15.811 4.3791 15.5593 4.48288 15.3733 4.66779L14.6233 5.41779C13.0306 4.13611 11.0476 3.43748 9.00325 3.43779C4.20325 3.43779 0.123255 7.39779 0.00325512 12.1978C-0.0290847 13.3998 0.179825 14.5961 0.617641 15.716C1.05546 16.8359 1.7133 17.8567 2.55229 18.7181C3.39129 19.5794 4.39442 20.2639 5.50242 20.731C6.61042 21.1982 7.80081 21.4385 9.00325 21.4378C10.6976 21.4387 12.3577 20.961 13.7924 20.0597C15.2271 19.1585 16.378 17.8703 17.1127 16.3435C17.8473 14.8168 18.1358 13.1136 17.9448 11.43C17.7538 9.74653 17.0912 8.1512 16.0333 6.82779ZM10.0033 12.4378C10.0033 12.9878 9.55325 13.4378 9.00325 13.4378C8.45325 13.4378 8.00325 12.9878 8.00325 12.4378V8.43779C8.00325 7.88779 8.45325 7.43779 9.00325 7.43779C9.55325 7.43779 10.0033 7.88779 10.0033 8.43779V12.4378Z" fill="white"/>
</svg>
