<svg width="68" height="28" viewBox="0 0 68 28" fill="none" xmlns="http://www.w3.org/2000/svg">
<path d="M0.0961914 1.97081C0.0961914 0.882222 2.31047 0 5.04254 0H62.5044C65.2364 0 67.4507 0.882222 67.4507 1.97081V25.5449C67.4507 26.6335 65.2364 27.5157 62.5044 27.5157H5.04254C2.31047 27.5157 0.0961914 26.6335 0.0961914 25.5449V1.97081ZM20.9045 23.0341V10.609H10.7971V23.0341H20.9045ZM15.8529 8.91165C19.3764 8.91165 21.5697 7.95892 21.5697 6.76542C21.5065 5.54613 19.3806 4.6192 15.9203 4.6192C12.46 4.6192 10.1994 5.54785 10.1994 6.76542C10.1994 7.95892 12.3926 8.91165 15.7856 8.91165H15.8529ZM36.5139 23.0341V16.095C36.5139 15.7235 36.5813 15.352 36.8507 15.0872C37.579 14.346 39.2418 13.5773 42.037 13.5773C45.6952 13.5773 47.1559 14.7157 47.1559 16.3873V23.0341H57.2633V15.9075C57.2633 12.0897 52.2791 10.3149 45.6278 10.3149C40.2647 10.3149 37.861 11.5188 36.5139 12.3666V12.4096H36.4466C36.4689 12.3952 36.4914 12.3809 36.5139 12.3666V10.609H26.4108C26.537 11.775 26.4108 23.0341 26.4108 23.0341H36.5139Z" fill="black"/>
</svg>
