<svg width="28" height="20" viewBox="0 0 28 20" fill="none" xmlns="http://www.w3.org/2000/svg">
<path d="M14 0.43779C7.63636 0.43779 2.20182 4.37712 0 9.93779C2.20182 15.4985 7.63636 19.4378 14 19.4378C20.3636 19.4378 25.7982 15.4985 28 9.93779C25.7982 4.37712 20.3636 0.43779 14 0.43779ZM14 16.2711C10.4873 16.2711 7.63636 13.4338 7.63636 9.93779C7.63636 6.44179 10.4873 3.60446 14 3.60446C17.5127 3.60446 20.3636 6.44179 20.3636 9.93779C20.3636 13.4338 17.5127 16.2711 14 16.2711ZM14 6.13779C11.8873 6.13779 10.1818 7.83512 10.1818 9.93779C10.1818 12.0405 11.8873 13.7378 14 13.7378C16.1127 13.7378 17.8182 12.0405 17.8182 9.93779C17.8182 7.83512 16.1127 6.13779 14 6.13779Z" fill="white"/>
</svg>
