<svg width="68" height="34" viewBox="0 0 68 34" fill="none" xmlns="http://www.w3.org/2000/svg">
<path d="M0.0961914 2.39313C0.0961914 1.07127 2.31047 0 5.04254 0H62.5044C65.2364 0 67.4507 1.07127 67.4507 2.39313V31.0188C67.4507 32.3407 65.2364 33.4119 62.5044 33.4119H5.04254C2.31047 33.4119 0.0961914 32.3407 0.0961914 31.0188V2.39313ZM20.9045 27.97V12.8824H10.7971V27.97H20.9045ZM15.8529 10.8213C19.3764 10.8213 21.5697 9.6644 21.5697 8.21516C21.5065 6.73459 19.3806 5.60903 15.9203 5.60903C12.46 5.60903 10.1994 6.73668 10.1994 8.21516C10.1994 9.6644 12.3926 10.8213 15.7856 10.8213H15.8529ZM36.5139 27.97V19.5439C36.5139 19.0928 36.5813 18.6418 36.8507 18.3202C37.579 17.4201 39.2418 16.4867 42.037 16.4867C45.6952 16.4867 47.1559 17.8691 47.1559 19.8989V27.97H57.2633V19.3163C57.2633 14.6804 52.2791 12.5253 45.6278 12.5253C40.2647 12.5253 37.861 13.9871 36.5139 15.0166V15.0688H36.4466C36.4689 15.0513 36.4914 15.0339 36.5139 15.0166V12.8824H26.4108C26.537 14.2982 26.4108 27.97 26.4108 27.97H36.5139Z" fill="black"/>
</svg>
