<svg width="24" height="26" viewBox="0 0 24 26" fill="none" xmlns="http://www.w3.org/2000/svg">
<path d="M8.28881 21.9496C6.07968 21.9496 4.28882 20.1587 4.28882 17.9496L4.28882 7.90445C4.28882 5.69532 6.07968 3.90445 8.28882 3.90445H15.4205C17.6296 3.90445 19.4205 5.69531 19.4205 7.90445V17.9496C19.4205 20.1587 17.6296 21.9496 15.4205 21.9496H8.28881Z" fill="#00FF00"/>
<path d="M23.3169 25.0358C22.5098 25.6551 21.2766 25.7576 20.341 25.2716C19.3877 24.7774 18.3814 24.4083 17.1583 24.679C15.6602 25.0091 14.1899 25.4274 12.7045 25.7904C12.2102 25.9114 11.6806 25.9032 11.1913 25.7678C10.1473 25.4746 9.0149 25.3393 8.01117 24.9681C6.38956 24.3693 4.98483 24.6031 3.65829 25.2675C2.72769 25.733 1.52472 25.6633 0.717702 25.0624C-0.124628 24.437 -0.167501 23.8095 0.288971 22.5361C0.379761 22.2818 0.44281 22.0194 0.568907 21.7794C1.40115 20.1738 1.44402 18.6421 0.387327 17.0323C0.0191233 16.4705 0.0216452 15.4349 0.4302 14.912C1.50707 13.5279 1.50707 12.2729 0.523512 10.9216C-0.159935 9.98244 -0.207852 9.06173 0.639522 8.15127C1.38602 7.35154 1.44907 6.44314 1.1313 5.51012C0.881628 4.78011 0.594127 4.05831 0.311669 3.3365C-0.187677 2.05694 -0.124628 1.41305 0.798404 0.758918C1.6029 0.186806 2.79326 0.137591 3.68855 0.611276C4.59393 1.09111 5.53966 1.48482 6.72498 1.22235C8.26841 0.879902 9.78409 0.455432 11.3174 0.0842762C11.8218 -0.0387588 12.359 -0.0264561 12.8558 0.117085C13.8469 0.402116 14.9213 0.543606 15.8695 0.902459C17.529 1.52789 18.9791 1.30847 20.3435 0.617428C21.2716 0.147844 22.4796 0.215512 23.2841 0.818384C24.1037 1.43356 24.1592 2.04668 23.7405 3.26063C23.6296 3.57847 23.5438 3.90656 23.3875 4.21005C22.588 5.76234 22.6057 7.23671 23.5817 8.7849C23.9473 9.36727 24.0129 10.4028 23.6094 10.9134C22.4594 12.3714 22.5426 13.6919 23.5539 15.1007C24.192 15.9907 24.1541 16.8622 23.3849 17.6988C22.6132 18.5395 22.5754 19.4787 22.8906 20.4445C23.1201 21.1458 23.4051 21.8369 23.675 22.53C24.1667 23.7747 24.1365 24.4062 23.3169 25.0358ZM20.3939 12.9476C20.3939 10.169 20.4015 7.38845 20.3914 4.60991C20.3864 3.38161 20.1266 3.17451 18.5958 3.17245C14.2 3.16835 9.80679 3.16835 5.41104 3.17245C3.89535 3.17451 3.55993 3.43903 3.55741 4.69604C3.54732 10.1896 3.54985 15.681 3.55741 21.1745C3.55993 22.4479 3.87518 22.7043 5.39339 22.7063C9.78914 22.7104 14.1824 22.7104 18.5781 22.7063C20.1745 22.7043 20.3889 22.5238 20.3914 21.1889C20.399 18.439 20.3939 15.6933 20.3939 12.9476Z" fill="#00FF00"/>
</svg>
