<svg width="88" height="76" viewBox="0 0 88 76" fill="none" xmlns="http://www.w3.org/2000/svg">
<path d="M51.9741 25.5176C61.5138 34.8128 71.5461 40.3947 81.8596 45.0972C82.8511 45.5357 83.8761 45.736 84.8532 46.2071C86.7664 47.1607 87.639 49.0054 87.1113 51.4985C86.5812 54.078 84.7991 53.8031 83.3683 53.0581C79.0086 50.8134 74.7378 48.2864 70.4237 45.8573C69.6226 45.3943 68.8505 44.866 68.0327 44.5221C66.3994 43.7479 65.1596 43.4645 63.36 44.8536C61.2688 46.4957 58.252 46.2506 55.4002 46.9321C55.7464 56.7907 56.418 66.6444 53.1339 75.3707C47.3336 74.2718 47.1333 74.1561 45.8242 67.856C45.1648 64.6358 44.9272 61.3551 44.4317 58.0892C44.1692 56.2457 43.7982 54.4039 42.4962 52.3929C41.8064 54.3591 41.1022 56.3579 40.3546 58.4546C38.6912 58.8044 36.9724 59.1983 35.4054 59.4926C33.2684 56.7706 31.5377 53.0483 29.258 52.1112C26.9518 51.1528 24.1086 53.0334 21.464 53.5712C16.5148 54.6092 11.5898 55.755 6.59212 56.5776C3.84135 57.0307 1.63091 55.5306 0.434793 51.0871C2.23216 49.7844 4.03191 48.3953 5.90661 47.2428C7.01019 46.5343 8.19053 45.4896 9.55998 47.5104C9.91259 48.0127 11.1471 47.9829 11.7929 47.6596C15.1331 45.955 18.3959 44.1004 22.2348 41.9992C21.5965 40.5181 21.1511 38.926 20.3299 37.6962C14.2 28.6508 9.96151 18.3335 6.4555 7.49733C4.94081 2.7994 6.50052 0.247248 10.3547 1.11686C11.8236 1.4507 13.3605 2.28048 14.6613 3.31917C18.086 6.0537 21.4379 8.46519 25.471 9.74259C28.9927 10.8766 32.2228 14.2948 35.5724 16.7928C37.8047 18.487 39.9793 20.3117 42.289 22.1559C44.7098 19.8497 46.576 17.4979 46.8752 13.4094C47.0364 10.9328 48.3132 9.83274 50.5132 10.7063C53.437 11.8928 54.5162 13.1078 54.0975 16.0853C53.6212 19.1934 52.742 22.1565 51.9741 25.5176ZM15.7351 14.8628C16.7287 19.2771 22.8041 31.3701 25.2712 33.9142C27.2507 35.9363 30.1353 36.5616 31.7555 34.2785C34.0811 30.969 36.8712 31.0771 39.9774 31.5262C41.4364 31.7197 42.9364 31.9018 43.5703 29.4936C40.6241 27.6268 37.6807 26.1596 35.0813 23.9958C29.2091 18.9978 23.222 14.7472 15.7351 14.8628Z" fill="white" style="mix-blend-mode:difference"/>
</svg>
