<svg width="232" height="275" viewBox="0 0 232 275" fill="none" xmlns="http://www.w3.org/2000/svg">
<path d="M115.667 187.958C51.7608 187.958 0 213.839 0 245.792V274.708H231.333V245.792C231.333 213.839 179.572 187.958 115.667 187.958ZM57.8333 101.208C57.8333 116.547 63.9265 131.257 74.7723 142.103C85.6182 152.949 100.328 159.042 115.667 159.042C131.005 159.042 145.715 152.949 156.561 142.103C167.407 131.257 173.5 116.547 173.5 101.208M108.437 0C104.1 0 101.208 3.03625 101.208 7.22917V50.6042H86.75V14.4583C86.75 14.4583 54.2187 26.8925 54.2187 68.6771C54.2187 68.6771 43.375 70.7013 43.375 86.75H187.958C187.235 70.7013 177.115 68.6771 177.115 68.6771C177.115 26.8925 144.583 14.4583 144.583 14.4583V50.6042H130.125V7.22917C130.125 3.03625 127.378 0 122.896 0H108.437Z" fill="white"/>
</svg>
