{
    "asset" : {
        "generator" : "Khronos glTF Blender I/O v3.2.43",
        "version" : "2.0"
    },
    "scene" : 0,
    "scenes" : [
        {
            "name" : "Scene",
            "nodes" : [
                0
            ]
        }
    ],
    "nodes" : [
        {
            "mesh" : 0,
            "name" : "Eye",
            "scale" : [
                31.39185333251953,
                31.39185333251953,
                31.39185333251953
            ],
            "translation" : [
                -3.269108772277832,
                -3.269108772277832,
                3.269108772277832
            ]
        }
    ],
    "animations" : [
        {
            "channels" : [
                {
                    "sampler" : 0,
                    "target" : {
                        "node" : 0,
                        "path" : "translation"
                    }
                }
            ],
            "name" : "EyeMov",
            "samplers" : [
                {
                    "input" : 8,
                    "interpolation" : "LINEAR",
                    "output" : 9
                }
            ]
        }
    ],
    "materials" : [
        {
            "doubleSided" : true,
            "name" : "MatBase",
            "pbrMetallicRoughness" : {}
        },
        {
            "emissiveFactor" : [
                0,
                1,
                0
            ],
            "name" : "Outline",
            "pbrMetallicRoughness" : {
                "baseColorFactor" : [
                    0,
                    0,
                    0,
                    1
                ]
            }
        }
    ],
    "meshes" : [
        {
            "name" : "Icosphere.001",
            "primitives" : [
                {
                    "attributes" : {
                        "POSITION" : 0,
                        "NORMAL" : 1,
                        "TEXCOORD_0" : 2
                    },
                    "indices" : 3,
                    "material" : 0
                },
                {
                    "attributes" : {
                        "POSITION" : 4,
                        "NORMAL" : 5,
                        "TEXCOORD_0" : 6
                    },
                    "indices" : 7,
                    "material" : 1
                }
            ]
        }
    ],
    "accessors" : [
        {
            "bufferView" : 0,
            "componentType" : 5126,
            "count" : 2069,
            "max" : [
                0.9700011610984802,
                0.9700000286102295,
                1.046341896057129
            ],
            "min" : [
                -0.9700011014938354,
                -0.9700000286102295,
                -0.9699999690055847
            ],
            "type" : "VEC3"
        },
        {
            "bufferView" : 1,
            "componentType" : 5126,
            "count" : 2069,
            "type" : "VEC3"
        },
        {
            "bufferView" : 2,
            "componentType" : 5126,
            "count" : 2069,
            "type" : "VEC2"
        },
        {
            "bufferView" : 3,
            "componentType" : 5123,
            "count" : 2100,
            "type" : "SCALAR"
        },
        {
            "bufferView" : 4,
            "componentType" : 5126,
            "count" : 2023,
            "max" : [
                1,
                1,
                1.0682371854782104
            ],
            "min" : [
                -0.9999999403953552,
                -1,
                -0.9999999403953552
            ],
            "type" : "VEC3"
        },
        {
            "bufferView" : 5,
            "componentType" : 5126,
            "count" : 2023,
            "type" : "VEC3"
        },
        {
            "bufferView" : 6,
            "componentType" : 5126,
            "count" : 2023,
            "type" : "VEC2"
        },
        {
            "bufferView" : 7,
            "componentType" : 5123,
            "count" : 2100,
            "type" : "SCALAR"
        },
        {
            "bufferView" : 8,
            "componentType" : 5126,
            "count" : 749,
            "max" : [
                31.166666666666668
            ],
            "min" : [
                0
            ],
            "type" : "SCALAR"
        },
        {
            "bufferView" : 9,
            "componentType" : 5126,
            "count" : 749,
            "type" : "VEC3"
        }
    ],
    "bufferViews" : [
        {
            "buffer" : 0,
            "byteLength" : 24828,
            "byteOffset" : 0
        },
        {
            "buffer" : 0,
            "byteLength" : 24828,
            "byteOffset" : 24828
        },
        {
            "buffer" : 0,
            "byteLength" : 16552,
            "byteOffset" : 49656
        },
        {
            "buffer" : 0,
            "byteLength" : 4200,
            "byteOffset" : 66208
        },
        {
            "buffer" : 0,
            "byteLength" : 24276,
            "byteOffset" : 70408
        },
        {
            "buffer" : 0,
            "byteLength" : 24276,
            "byteOffset" : 94684
        },
        {
            "buffer" : 0,
            "byteLength" : 16184,
            "byteOffset" : 118960
        },
        {
            "buffer" : 0,
            "byteLength" : 4200,
            "byteOffset" : 135144
        },
        {
            "buffer" : 0,
            "byteLength" : 2996,
            "byteOffset" : 139344
        },
        {
            "buffer" : 0,
            "byteLength" : 8988,
            "byteOffset" : 142340
        }
    ],
    "buffers" : [
        {
            "byteLength" : 151328,
            "uri" : "data:application/octet-stream;base64,"
        }
    ]
}
