{
    "asset" : {
        "generator" : "Khronos glTF Blender I/O v3.2.43",
        "version" : "2.0"
    },
    "scene" : 0,
    "scenes" : [
        {
            "name" : "Scene",
            "nodes" : [
                0
            ]
        }
    ],
    "nodes" : [
        {
            "mesh" : 0,
            "name" : "Icosphere",
            "scale" : [
                31.39185333251953,
                31.39185333251953,
                31.39185333251953
            ]
        }
    ],
    "materials" : [
        {
            "doubleSided" : true,
            "name" : "MatBase",
            "pbrMetallicRoughness" : {}
        },
        {
            "emissiveFactor" : [
                0,
                1,
                0
            ],
            "name" : "Outline",
            "pbrMetallicRoughness" : {
                "baseColorFactor" : [
                    0,
                    0,
                    0,
                    1
                ]
            }
        }
    ],
    "meshes" : [
        {
            "name" : "Icosphere",
            "primitives" : [
                {
                    "attributes" : {
                        "POSITION" : 0,
                        "NORMAL" : 1,
                        "TEXCOORD_0" : 2
                    },
                    "indices" : 3,
                    "material" : 0
                },
                {
                    "attributes" : {
                        "POSITION" : 4,
                        "NORMAL" : 5,
                        "TEXCOORD_0" : 6
                    },
                    "indices" : 7,
                    "material" : 1
                }
            ]
        }
    ],
    "accessors" : [
        {
            "bufferView" : 0,
            "componentType" : 5126,
            "count" : 1664,
            "max" : [
                0.9700011610984802,
                0.9700000286102295,
                1.046341896057129
            ],
            "min" : [
                -0.9700011014938354,
                -0.9700000286102295,
                -0.9699999690055847
            ],
            "type" : "VEC3"
        },
        {
            "bufferView" : 1,
            "componentType" : 5126,
            "count" : 1664,
            "type" : "VEC3"
        },
        {
            "bufferView" : 2,
            "componentType" : 5126,
            "count" : 1664,
            "type" : "VEC2"
        },
        {
            "bufferView" : 3,
            "componentType" : 5123,
            "count" : 2100,
            "type" : "SCALAR"
        },
        {
            "bufferView" : 4,
            "componentType" : 5126,
            "count" : 1658,
            "max" : [
                1,
                1,
                1.0682371854782104
            ],
            "min" : [
                -0.9999999403953552,
                -1,
                -0.9999999403953552
            ],
            "type" : "VEC3"
        },
        {
            "bufferView" : 5,
            "componentType" : 5126,
            "count" : 1658,
            "type" : "VEC3"
        },
        {
            "bufferView" : 6,
            "componentType" : 5126,
            "count" : 1658,
            "type" : "VEC2"
        },
        {
            "bufferView" : 7,
            "componentType" : 5123,
            "count" : 2100,
            "type" : "SCALAR"
        }
    ],
    "bufferViews" : [
        {
            "buffer" : 0,
            "byteLength" : 19968,
            "byteOffset" : 0
        },
        {
            "buffer" : 0,
            "byteLength" : 19968,
            "byteOffset" : 19968
        },
        {
            "buffer" : 0,
            "byteLength" : 13312,
            "byteOffset" : 39936
        },
        {
            "buffer" : 0,
            "byteLength" : 4200,
            "byteOffset" : 53248
        },
        {
            "buffer" : 0,
            "byteLength" : 19896,
            "byteOffset" : 57448
        },
        {
            "buffer" : 0,
            "byteLength" : 19896,
            "byteOffset" : 77344
        },
        {
            "buffer" : 0,
            "byteLength" : 13264,
            "byteOffset" : 97240
        },
        {
            "buffer" : 0,
            "byteLength" : 4200,
            "byteOffset" : 110504
        }
    ],
    "buffers" : [
        {
            "byteLength" : 114704,
            "uri" : "data:application/octet-stream;base64,"
        }
    ]
}
