{
    "asset" : {
        "generator" : "Khronos glTF Blender I/O v3.2.43",
        "version" : "2.0"
    },
    "scene" : 0,
    "scenes" : [
        {
            "name" : "Scene",
            "nodes" : [
                0
            ]
        }
    ],
    "nodes" : [
        {
            "mesh" : 0,
            "name" : "Plane",
            "rotation" : [
                0,
                0,
                -0.24596714973449707,
                0.9692782163619995
            ],
            "scale" : [
                -32.404083251953125,
                -32.404083251953125,
                -32.404083251953125
            ],
            "translation" : [
                5.198997974395752,
                2.865459442138672,
                16.901628494262695
            ]
        }
    ],
    "materials" : [
        {
            "doubleSided" : true,
            "name" : "MatBase",
            "pbrMetallicRoughness" : {}
        },
        {
            "emissiveFactor" : [
                0,
                1,
                0
            ],
            "name" : "Outline",
            "pbrMetallicRoughness" : {
                "baseColorFactor" : [
                    0,
                    0,
                    0,
                    1
                ]
            }
        }
    ],
    "meshes" : [
        {
            "name" : "Plane",
            "primitives" : [
                {
                    "attributes" : {
                        "POSITION" : 0,
                        "NORMAL" : 1,
                        "TEXCOORD_0" : 2
                    },
                    "indices" : 3,
                    "material" : 0
                },
                {
                    "attributes" : {
                        "POSITION" : 4,
                        "NORMAL" : 5,
                        "TEXCOORD_0" : 6
                    },
                    "indices" : 7,
                    "material" : 1
                }
            ]
        }
    ],
    "accessors" : [
        {
            "bufferView" : 0,
            "componentType" : 5126,
            "count" : 112,
            "max" : [
                1.8958508968353271,
                1.3236054182052612,
                1.349034070968628
            ],
            "min" : [
                -1.5832891464233398,
                -1.0108145475387573,
                -0.6666667461395264
            ],
            "type" : "VEC3"
        },
        {
            "bufferView" : 1,
            "componentType" : 5126,
            "count" : 112,
            "type" : "VEC3"
        },
        {
            "bufferView" : 2,
            "componentType" : 5126,
            "count" : 112,
            "type" : "VEC2"
        },
        {
            "bufferView" : 3,
            "componentType" : 5123,
            "count" : 168,
            "type" : "SCALAR"
        },
        {
            "bufferView" : 4,
            "componentType" : 5126,
            "count" : 56,
            "max" : [
                1.8958508968353271,
                1.3236054182052612,
                1.347649097442627
            ],
            "min" : [
                -1.5832891464233398,
                -1.0108145475387573,
                -0.6666667461395264
            ],
            "type" : "VEC3"
        },
        {
            "bufferView" : 5,
            "componentType" : 5126,
            "count" : 56,
            "type" : "VEC3"
        },
        {
            "bufferView" : 6,
            "componentType" : 5126,
            "count" : 56,
            "type" : "VEC2"
        },
        {
            "bufferView" : 7,
            "componentType" : 5123,
            "count" : 84,
            "type" : "SCALAR"
        }
    ],
    "bufferViews" : [
        {
            "buffer" : 0,
            "byteLength" : 1344,
            "byteOffset" : 0
        },
        {
            "buffer" : 0,
            "byteLength" : 1344,
            "byteOffset" : 1344
        },
        {
            "buffer" : 0,
            "byteLength" : 896,
            "byteOffset" : 2688
        },
        {
            "buffer" : 0,
            "byteLength" : 336,
            "byteOffset" : 3584
        },
        {
            "buffer" : 0,
            "byteLength" : 672,
            "byteOffset" : 3920
        },
        {
            "buffer" : 0,
            "byteLength" : 672,
            "byteOffset" : 4592
        },
        {
            "buffer" : 0,
            "byteLength" : 448,
            "byteOffset" : 5264
        },
        {
            "buffer" : 0,
            "byteLength" : 168,
            "byteOffset" : 5712
        }
    ],
    "buffers" : [
        {
            "byteLength" : 5880,
            "uri" : "data:application/octet-stream;base64,"
        }
    ]
}
