{
    "asset" : {
        "generator" : "Khronos glTF Blender I/O v3.2.43",
        "version" : "2.0"
    },
    "scene" : 0,
    "scenes" : [
        {
            "name" : "Scene",
            "nodes" : [
                0
            ]
        }
    ],
    "nodes" : [
        {
            "mesh" : 0,
            "name" : "Eyelid",
            "rotation" : [
                0,
                0,
                -0.24596717953681946,
                0.9692781567573547
            ],
            "scale" : [
                -32.404083251953125,
                -32.404083251953125,
                -32.404083251953125
            ],
            "translation" : [
                5.198997974395752,
                -3.269108772277832,
                16.901628494262695
            ]
        }
    ],
    "animations" : [
        {
            "channels" : [
                {
                    "sampler" : 0,
                    "target" : {
                        "node" : 0,
                        "path" : "translation"
                    }
                }
            ],
            "name" : "EyelidMov",
            "samplers" : [
                {
                    "input" : 12,
                    "interpolation" : "LINEAR",
                    "output" : 13
                }
            ]
        },
        {
            "channels" : [
                {
                    "sampler" : 0,
                    "target" : {
                        "node" : 0,
                        "path" : "weights"
                    }
                }
            ],
            "name" : "KeyAction",
            "samplers" : [
                {
                    "input" : 14,
                    "interpolation" : "LINEAR",
                    "output" : 15
                }
            ]
        }
    ],
    "materials" : [
        {
            "doubleSided" : true,
            "name" : "MatBase.001",
            "pbrMetallicRoughness" : {}
        },
        {
            "emissiveFactor" : [
                0,
                1,
                0
            ],
            "name" : "Outline.001",
            "pbrMetallicRoughness" : {
                "baseColorFactor" : [
                    0,
                    0,
                    0,
                    1
                ]
            }
        }
    ],
    "meshes" : [
        {
            "extras" : {
                "targetNames" : [
                    "ClosedEye"
                ]
            },
            "name" : "Plane",
            "primitives" : [
                {
                    "attributes" : {
                        "POSITION" : 0,
                        "NORMAL" : 1,
                        "TEXCOORD_0" : 2
                    },
                    "indices" : 3,
                    "material" : 0,
                    "targets" : [
                        {
                            "POSITION" : 4,
                            "NORMAL" : 5
                        }
                    ]
                },
                {
                    "attributes" : {
                        "POSITION" : 6,
                        "NORMAL" : 7,
                        "TEXCOORD_0" : 8
                    },
                    "indices" : 9,
                    "material" : 1,
                    "targets" : [
                        {
                            "POSITION" : 10,
                            "NORMAL" : 11
                        }
                    ]
                }
            ],
            "weights" : [
                0
            ]
        }
    ],
    "accessors" : [
        {
            "bufferView" : 0,
            "componentType" : 5126,
            "count" : 122,
            "max" : [
                1.8958508968353271,
                1.3236054182052612,
                1.349034070968628
            ],
            "min" : [
                -1.5832891464233398,
                -1.0108145475387573,
                -0.6666667461395264
            ],
            "type" : "VEC3"
        },
        {
            "bufferView" : 1,
            "componentType" : 5126,
            "count" : 122,
            "type" : "VEC3"
        },
        {
            "bufferView" : 2,
            "componentType" : 5126,
            "count" : 122,
            "type" : "VEC2"
        },
        {
            "bufferView" : 3,
            "componentType" : 5123,
            "count" : 168,
            "type" : "SCALAR"
        },
        {
            "bufferView" : 4,
            "componentType" : 5126,
            "count" : 122,
            "max" : [
                0.6462564468383789,
                1.0612106323242188,
                0.2625734508037567
            ],
            "min" : [
                -0.42906561493873596,
                -0.577487587928772,
                -0.10492289066314697
            ],
            "type" : "VEC3"
        },
        {
            "bufferView" : 5,
            "componentType" : 5126,
            "count" : 122,
            "type" : "VEC3"
        },
        {
            "bufferView" : 6,
            "componentType" : 5126,
            "count" : 72,
            "max" : [
                1.8958508968353271,
                1.3236054182052612,
                1.347649097442627
            ],
            "min" : [
                -1.5832891464233398,
                -1.0108145475387573,
                -0.6666667461395264
            ],
            "type" : "VEC3"
        },
        {
            "bufferView" : 7,
            "componentType" : 5126,
            "count" : 72,
            "type" : "VEC3"
        },
        {
            "bufferView" : 8,
            "componentType" : 5126,
            "count" : 72,
            "type" : "VEC2"
        },
        {
            "bufferView" : 9,
            "componentType" : 5123,
            "count" : 84,
            "type" : "SCALAR"
        },
        {
            "bufferView" : 10,
            "componentType" : 5126,
            "count" : 72,
            "max" : [
                0.6462564468383789,
                1.0612106323242188,
                0.2625734508037567
            ],
            "min" : [
                -0.42906561493873596,
                -0.5767198204994202,
                -0.06454706192016602
            ],
            "type" : "VEC3"
        },
        {
            "bufferView" : 11,
            "componentType" : 5126,
            "count" : 72,
            "type" : "VEC3"
        },
        {
            "bufferView" : 12,
            "componentType" : 5126,
            "count" : 749,
            "max" : [
                31.166666666666668
            ],
            "min" : [
                0
            ],
            "type" : "SCALAR"
        },
        {
            "bufferView" : 13,
            "componentType" : 5126,
            "count" : 749,
            "type" : "VEC3"
        },
        {
            "bufferView" : 14,
            "componentType" : 5126,
            "count" : 499,
            "max" : [
                20.75
            ],
            "min" : [
                0
            ],
            "type" : "SCALAR"
        },
        {
            "bufferView" : 15,
            "componentType" : 5126,
            "count" : 499,
            "type" : "SCALAR"
        }
    ],
    "bufferViews" : [
        {
            "buffer" : 0,
            "byteLength" : 1464,
            "byteOffset" : 0
        },
        {
            "buffer" : 0,
            "byteLength" : 1464,
            "byteOffset" : 1464
        },
        {
            "buffer" : 0,
            "byteLength" : 976,
            "byteOffset" : 2928
        },
        {
            "buffer" : 0,
            "byteLength" : 336,
            "byteOffset" : 3904
        },
        {
            "buffer" : 0,
            "byteLength" : 1464,
            "byteOffset" : 4240
        },
        {
            "buffer" : 0,
            "byteLength" : 1464,
            "byteOffset" : 5704
        },
        {
            "buffer" : 0,
            "byteLength" : 864,
            "byteOffset" : 7168
        },
        {
            "buffer" : 0,
            "byteLength" : 864,
            "byteOffset" : 8032
        },
        {
            "buffer" : 0,
            "byteLength" : 576,
            "byteOffset" : 8896
        },
        {
            "buffer" : 0,
            "byteLength" : 168,
            "byteOffset" : 9472
        },
        {
            "buffer" : 0,
            "byteLength" : 864,
            "byteOffset" : 9640
        },
        {
            "buffer" : 0,
            "byteLength" : 864,
            "byteOffset" : 10504
        },
        {
            "buffer" : 0,
            "byteLength" : 2996,
            "byteOffset" : 11368
        },
        {
            "buffer" : 0,
            "byteLength" : 8988,
            "byteOffset" : 14364
        },
        {
            "buffer" : 0,
            "byteLength" : 1996,
            "byteOffset" : 23352
        },
        {
            "buffer" : 0,
            "byteLength" : 1996,
            "byteOffset" : 25348
        }
    ],
    "buffers" : [
        {
            "byteLength" : 27344,
            "uri" : "data:application/octet-stream;base64,"
        }
    ]
}
